<?xml version="1.0" encoding="utf-8"?>
<!-- Generator: Adobe Illustrator 27.8.1, SVG Export Plug-In . SVG Version: 6.00 Build 0)  -->
<svg version="1.1" id="Layer_1"
	 xmlns="http://www.w3.org/2000/svg" x="0px" y="0px" viewBox="0 0 600 600"
	 style="enable-background:new 0 0 600 600;" xml:space="preserve">
<style type="text/css">
	.rain3{fill:#009AD1;stroke:#009AD1;stroke-width:0.8035;stroke-linecap:round;stroke-linejoin:round;stroke-miterlimit:113.3858;}
</style>
    <path class="rain3" d="M200.1,225.7l-13.4-40.1l-13.4,40.1c-2.5,7.4,1.5,15.5,8.9,17.9c7.4,2.5,15.5-1.5,17.9-8.9
	C201,231.8,201,228.6,200.1,225.7z"/>
    <path class="rain3" d="M285.1,225.7l-13.4-40.1l-13.4,40.1c-2.5,7.4,1.5,15.5,8.9,17.9c7.4,2.5,15.5-1.5,17.9-8.9
	C286.1,231.8,286.1,228.6,285.1,225.7z"/>
    <path class="rain3" d="M370.1,225.7l-13.4-40.1l-13.4,40.1c-2.5,7.4,1.5,15.5,8.9,17.9c7.4,2.5,15.5-1.5,17.9-8.9
	C371.1,231.8,371.1,228.6,370.1,225.7z"/>
    <path class="rain3" d="M455.2,225.7l-13.4-40.1l-13.4,40.1c-2.5,7.4,1.5,15.5,8.9,17.9c7.4,2.5,15.5-1.5,17.9-8.9
	C456.2,231.8,456.2,228.6,455.2,225.7z"/>
    <path class="rain3" d="M341.8,282.4l-13.4-40.1L315,282.4c-2.5,7.4,1.5,15.5,8.9,17.9s15.5-1.5,17.9-8.9
	C342.8,288.5,342.8,285.3,341.8,282.4z"/>
    <path class="rain3" d="M171.7,282.4l-13.4-40.1l-13.4,40.1c-2.5,7.4,1.5,15.5,8.9,17.9c7.4,2.5,15.5-1.5,17.9-8.9
	C172.7,288.5,172.7,285.3,171.7,282.4z"/>
    <path class="rain3" d="M256.7,282.4l-13.4-40.1l-13.4,40.1c-2.5,7.4,1.5,15.5,8.9,17.9c7.4,2.5,15.5-1.5,17.9-8.9
	C257.7,288.5,257.7,285.3,256.7,282.4z"/>
    <path class="rain3" d="M426.8,282.4l-13.4-40.1L400,282.4c-2.5,7.4,1.5,15.5,8.9,17.9c7.4,2.5,15.5-1.5,17.9-8.9
	C427.8,288.5,427.8,285.3,426.8,282.4z"/>
    <path class="rain3" d="M455.2,339.1L441.8,299l-13.4,40.1c-2.5,7.4,1.5,15.5,8.9,17.9c7.4,2.5,15.5-1.5,17.9-8.9
	C456.2,345.2,456.2,342,455.2,339.1z"/>
    <path class="rain3" d="M200.1,339.1L186.7,299l-13.4,40.1c-2.5,7.4,1.5,15.5,8.9,17.9s15.5-1.5,17.9-8.9
	C201,345.2,201,342,200.1,339.1z"/>
    <path class="rain3" d="M285.1,339.1L271.7,299l-13.4,40.1c-2.5,7.4,1.5,15.5,8.9,17.9c7.4,2.5,15.5-1.5,17.9-8.9
	C286.1,345.2,286.1,342,285.1,339.1z"/>
    <path class="rain3" d="M370.1,339.1L356.7,299l-13.4,40.1c-2.5,7.4,1.5,15.5,8.9,17.9c7.4,2.5,15.5-1.5,17.9-8.9
	C371.1,345.2,371.1,342,370.1,339.1z"/>
    <path class="rain3" d="M426.8,395.8l-13.4-40.1L400,395.8c-2.5,7.4,1.5,15.5,8.9,17.9c7.4,2.5,15.5-1.5,17.9-8.9
	C427.8,401.8,427.8,398.7,426.8,395.8z"/>
    <path class="rain3" d="M171.7,395.8l-13.4-40.1l-13.4,40.1c-2.5,7.4,1.5,15.5,8.9,17.9c7.4,2.5,15.5-1.5,17.9-8.9
	C172.7,401.8,172.7,398.7,171.7,395.8z"/>
    <path class="rain3" d="M256.7,395.8l-13.4-40.1l-13.4,40.1c-2.5,7.4,1.5,15.5,8.9,17.9s15.5-1.5,17.9-8.9
	C257.7,401.8,257.7,398.7,256.7,395.8z"/>
    <path class="rain3" d="M341.8,395.8l-13.4-40.1L315,395.8c-2.5,7.4,1.5,15.5,8.9,17.9c7.4,2.5,15.5-1.5,17.9-8.9
	C342.8,401.8,342.8,398.7,341.8,395.8z"/>
</svg>
