<?xml version="1.0" encoding="utf-8"?>
<!-- Generator: Adobe Illustrator 27.8.1, SVG Export Plug-In . SVG Version: 6.00 Build 0)  -->
<svg version="1.1" id="Layer_1"
	 xmlns="http://www.w3.org/2000/svg" x="0px" y="0px" viewBox="0 0 600 600"
	 style="enable-background:new 0 0 600 600;" xml:space="preserve">
<style type="text/css">
	.rain1{fill:#009AD1;stroke:#009AD1;stroke-width:0.25;stroke-miterlimit:10;}
</style>
    <path class="rain1" d="M171.7,310.7l-13.4-40.1l-13.4,40.1c-2.5,7.4,1.5,15.5,8.9,17.9c7.4,2.5,15.5-1.5,17.9-8.9
	C172.7,316.8,172.7,313.6,171.7,310.7z"/>
    <path class="rain1" d="M200.1,254l-13.4-40.1L173.2,254c-2.5,7.4,1.5,15.5,8.9,17.9c7.4,2.5,15.5-1.5,17.9-8.9
	C201,260.1,201,257,200.1,254z"/>
    <path class="rain1" d="M370.1,367.4l-13.4-40.1l-13.4,40.1c-2.5,7.4,1.5,15.5,8.9,17.9c7.4,2.5,15.5-1.5,17.9-8.9
	C371.1,373.5,371.1,370.3,370.1,367.4z"/>
    <path class="rain1" d="M341.8,310.7l-13.4-40.1l-13.4,40.1c-2.5,7.4,1.5,15.5,8.9,17.9c7.4,2.5,15.5-1.5,17.9-8.9
	C342.8,316.8,342.8,313.6,341.8,310.7z"/>
    <path class="rain1" d="M285.1,367.4l-13.4-40.1l-13.4,40.1c-2.5,7.4,1.5,15.5,8.9,17.9c7.4,2.5,15.5-1.5,17.9-8.9
	C286.1,373.5,286.1,370.3,285.1,367.4z"/>
    <path class="rain1" d="M426.8,310.7l-13.4-40.1l-13.4,40.1c-2.5,7.4,1.5,15.5,8.9,17.9c7.4,2.5,15.5-1.5,17.9-8.9
	C427.8,316.8,427.8,313.6,426.8,310.7z"/>
    <path class="rain1" d="M455.2,254l-13.4-40.1L428.3,254c-2.5,7.4,1.5,15.5,8.9,17.9c7.4,2.5,15.5-1.5,17.9-8.9
	C456.2,260.1,456.2,257,455.2,254z"/>
</svg>
