<?xml version="1.0" encoding="utf-8"?>
<!-- Generator: Adobe Illustrator 27.8.1, SVG Export Plug-In . SVG Version: 6.00 Build 0)  -->
<svg version="1.1" id="Layer_1"
	 xmlns="http://www.w3.org/2000/svg" x="0px" y="0px" viewBox="0 0 600 600"
	 style="enable-background:new 0 0 600 600;" xml:space="preserve">
<style type="text/css">
	.sleet{fill:#F2F2F2;stroke:#FFFFFF;stroke-width:0.8035;stroke-linecap:round;stroke-linejoin:round;stroke-miterlimit:113.3858;}
</style>
    <path class="sleet" d="M427.6,215c0,7.8,6.3,14.2,14.2,14.2c7.8,0,14.2-6.3,14.2-14.2s-6.4-14.2-14.3-14.2
	C433.9,200.8,427.6,207.1,427.6,215z"/>
    <path class="sleet" d="M314.2,385.1c0,7.8,6.3,14.2,14.2,14.2c7.9,0,14.2-6.3,14.2-14.2s-6.3-14.2-14.2-14.2
	C320.5,370.9,314.2,377.2,314.2,385.1z"/>
    <path class="sleet" d="M427.6,328.4c0,7.8,6.3,14.2,14.2,14.2c7.8,0,14.2-6.3,14.2-14.2c0-7.9-6.3-14.2-14.2-14.2
	S427.6,320.5,427.6,328.4z"/>
    <path class="sleet" d="M314.2,271.7c0,7.8,6.3,14.2,14.2,14.2c7.9,0,14.2-6.3,14.2-14.2s-6.3-14.2-14.2-14.2
	C320.5,257.5,314.2,263.8,314.2,271.7z"/>
    <path class="sleet"
          d="M257.5,328.4c0,7.8,6.3,14.2,14.2,14.2s14.2-6.3,14.2-14.2c0-7.9-6.3-14.2-14.2-14.2S257.5,320.5,257.5,328.4z"
    />
    <path class="sleet"
          d="M342.5,215c0,7.8,6.3,14.2,14.2,14.2c7.8,0,14.2-6.3,14.2-14.2s-6.4-14.2-14.2-14.2S342.5,207.1,342.5,215z"/>
    <path class="sleet"
          d="M257.5,215c0,7.8,6.3,14.2,14.2,14.2s14.2-6.3,14.2-14.2s-6.4-14.2-14.2-14.2S257.5,207.1,257.5,215z"/>
    <path class="sleet"
          d="M399.2,385.1c0,7.8,6.3,14.2,14.2,14.2s14.2-6.3,14.2-14.2s-6.3-14.2-14.2-14.2S399.2,377.2,399.2,385.1z"/>
    <path class="sleet"
          d="M399.2,271.7c0,7.8,6.3,14.2,14.2,14.2s14.2-6.3,14.2-14.2s-6.3-14.2-14.2-14.2S399.2,263.8,399.2,271.7z"/>
    <path class="sleet"
          d="M172.4,215c0,7.8,6.3,14.2,14.2,14.2s14.2-6.4,14.2-14.2s-6.4-14.2-14.2-14.2S172.4,207.1,172.4,215z"/>
    <path class="sleet" d="M342.5,328.4c0,7.8,6.3,14.2,14.2,14.2c7.8,0,14.2-6.3,14.2-14.2c0-7.9-6.3-14.2-14.2-14.2
	C348.9,314.2,342.5,320.5,342.5,328.4z"/>
    <path class="sleet" d="M144.1,385.1c0,7.8,6.3,14.2,14.2,14.2c7.9,0,14.2-6.3,14.2-14.2s-6.3-14.2-14.2-14.2
	C150.4,370.9,144.1,377.2,144.1,385.1z"/>
    <path class="sleet" d="M144.1,271.7c0,7.8,6.3,14.1,14.2,14.1c7.9,0,14.2-6.3,14.2-14.2s-6.4-14.1-14.2-14.1S144.1,263.8,144.1,271.7z
	"/>
    <path class="sleet"
          d="M172.4,328.4c0,7.8,6.3,14.2,14.2,14.2s14.2-6.3,14.2-14.2c0-7.9-6.3-14.2-14.2-14.2S172.4,320.5,172.4,328.4z"
    />
    <path class="sleet"
          d="M229.1,271.7c0,7.8,6.4,14.1,14.2,14.1s14.2-6.3,14.2-14.2s-6.4-14.1-14.2-14.1S229.1,263.8,229.1,271.7z"/>
    <path class="sleet"
          d="M229.1,385.1c0,7.8,6.3,14.2,14.2,14.2s14.2-6.3,14.2-14.2s-6.3-14.2-14.2-14.2S229.1,377.2,229.1,385.1z"/>
</svg>
