<?xml version="1.0" encoding="utf-8"?>
<!-- Generator: Adobe Illustrator 27.8.1, SVG Export Plug-In . SVG Version: 6.00 Build 0)  -->
<svg version="1.1" id="Layer_1" xmlns:shaper="http://www.shapertools.com/namespaces/shaper"
	 shaper:fusionaddin="version:1.7.0"
	 xmlns="http://www.w3.org/2000/svg" x="0px" y="0px" viewBox="0 0 600 600"
	 style="enable-background:new 0 0 600 600;" xml:space="preserve">
<style type="text/css">
	.snow1{fill:#DDDDDD;}
</style>
    <g>
	<path class="snow1" d="M194.5,242.5l4.7-6c0.1-0.1,0.1-0.3,0-0.4c-0.1-0.1-0.2-0.2-0.4-0.2l-7.6,1.1c-0.1,0-0.2,0.1-0.3,0.1l-3,3.8
		l1.8-4.5c0-0.1,0-0.2,0-0.3L187,229c-0.1-0.3-0.6-0.3-0.7,0l-2.8,7.1c0,0.1,0,0.2,0,0.3l1.8,4.5l-3-3.8c-0.1-0.1-0.2-0.1-0.3-0.1
		l-7.6-1.1c-0.2,0-0.3,0.1-0.4,0.2c-0.1,0.1-0.1,0.3,0,0.4l4.7,6c0.1,0.1,0.2,0.1,0.3,0.1l4.8,0.7L179,244c-0.1,0-0.2,0.1-0.3,0.1
		l-4.7,6c-0.1,0.1-0.1,0.3,0,0.4c0.1,0.1,0.2,0.2,0.4,0.2l7.6-1.1c0.1,0,0.2-0.1,0.3-0.1l3-3.8l-1.8,4.5c0,0.1,0,0.2,0,0.3l2.8,7.1
		c0.1,0.2,0.2,0.3,0.4,0.3s0.3-0.1,0.4-0.3l2.8-7.1c0-0.1,0-0.2,0-0.3l-1.8-4.5l3,3.8c0.1,0.1,0.2,0.1,0.3,0.1l7.6,1.1
		c0.2,0,0.3-0.1,0.4-0.2c0.1-0.1,0.1-0.3,0-0.4l-4.7-6c-0.1-0.1-0.2-0.1-0.3-0.1l-4.8-0.7l4.8-0.7
		C194.3,242.6,194.4,242.5,194.5,242.5z"/>
        <path class="snow1" d="M166.1,299.2l4.7-6c0.1-0.1,0.1-0.3,0-0.4c-0.1-0.1-0.2-0.2-0.4-0.2l-7.6,1.1c-0.1,0-0.2,0.1-0.3,0.1l-3,3.8
		l1.8-4.5c0-0.1,0-0.2,0-0.3l-2.8-7.1c-0.1-0.3-0.6-0.3-0.7,0l-2.8,7.1c0,0.1,0,0.2,0,0.3l1.8,4.5l-3-3.8c-0.1-0.1-0.2-0.1-0.3-0.1
		l-7.6-1.1c-0.2,0-0.3,0.1-0.4,0.2c-0.1,0.1-0.1,0.3,0,0.4l4.7,6c0.1,0.1,0.2,0.1,0.3,0.1l4.8,0.7l-4.8,0.7c-0.1,0-0.2,0.1-0.3,0.1
		l-4.7,6c-0.1,0.1-0.1,0.3,0,0.4c0.1,0.1,0.2,0.2,0.4,0.2l7.6-1.1c0.1,0,0.2-0.1,0.3-0.1l3-3.8l-1.8,4.5c0,0.1,0,0.2,0,0.3l2.8,7.1
		c0.1,0.2,0.2,0.3,0.4,0.3s0.3-0.1,0.4-0.3l2.8-7.1c0-0.1,0-0.2,0-0.3l-1.8-4.5l3,3.8c0.1,0.1,0.2,0.1,0.3,0.1l7.6,1.1
		c0.2,0,0.3-0.1,0.4-0.2c0.1-0.1,0.1-0.3,0-0.4l-4.7-6c-0.1-0.1-0.2-0.1-0.3-0.1l-4.8-0.7l4.8-0.7
		C166,299.3,166.1,299.2,166.1,299.2z"/>
        <path class="snow1" d="M279.5,355.9l4.7-6c0.1-0.1,0.1-0.2,0.1-0.2c0-0.1,0-0.1-0.1-0.2c-0.1-0.1-0.2-0.2-0.4-0.2l-7.6,1.1
		c-0.1,0-0.2,0.1-0.3,0.1l-3,3.8l1.8-4.5c0,0,0-0.1,0-0.1s0-0.1,0-0.1l-2.8-7.1c0,0,0,0,0,0c0,0,0,0,0,0c0-0.1-0.1-0.1-0.2-0.1
		c0,0,0,0,0,0c0,0-0.1,0-0.1,0c0,0,0,0-0.1,0c0,0-0.1,0-0.1,0c0,0,0,0,0,0c0,0,0,0,0,0c-0.1,0-0.1,0.1-0.2,0.1c0,0,0,0,0,0
		c0,0,0,0,0,0l-2.8,7.1c0,0,0,0.1,0,0.1s0,0.1,0,0.1l1.8,4.5l-3-3.8c0,0,0,0,0,0c0,0,0,0,0,0c-0.1-0.1-0.1-0.1-0.2-0.1c0,0,0,0,0,0
		l0,0c0,0,0,0,0,0l-7.5-1.1c-0.2,0-0.3,0.1-0.4,0.2c0,0.1-0.1,0.1-0.1,0.2c0,0.1,0,0.2,0.1,0.2l4.7,6c0,0,0,0,0,0c0,0,0,0,0,0
		c0.1,0.1,0.1,0.1,0.2,0.1c0,0,0,0,0,0l4.8,0.7l-4.8,0.7c-0.1,0-0.2,0.1-0.3,0.1l-4.7,6c-0.1,0.1-0.1,0.2-0.1,0.2c0,0,0,0,0,0
		c0,0,0,0,0,0c0,0,0,0,0,0.1c0,0,0,0,0,0.1c0,0,0,0,0,0.1c0,0,0.1,0.1,0.1,0.1c0,0,0,0,0,0c0,0,0,0,0,0c0.1,0,0.1,0.1,0.2,0.1
		c0,0,0,0,0,0c0,0,0,0,0,0c0,0,0,0,0,0l7.6-1.1c0.1,0,0.2-0.1,0.3-0.1l3-3.8l-1.8,4.5c0,0,0,0.1,0,0.1s0,0.1,0,0.1l2.8,7.1
		c0.1,0.2,0.2,0.3,0.4,0.3s0.3-0.1,0.4-0.3l2.8-7.1c0,0,0-0.1,0-0.1s0-0.1,0-0.1l-1.8-4.5l3,3.8c0.1,0.1,0.2,0.1,0.3,0.1l7.6,1.1
		c0.2,0,0.3-0.1,0.4-0.2c0-0.1,0.1-0.1,0.1-0.2c0-0.1,0-0.2-0.1-0.2l-4.7-6c-0.1-0.1-0.2-0.1-0.3-0.1l-4.8-0.7l4.8-0.7
		C279.4,356,279.5,355.9,279.5,355.9z"/>
        <path class="snow1" d="M364.3,356c0.1,0,0.1-0.1,0.2-0.1c0,0,0,0,0,0c0,0,0,0,0,0l4.7-6c0.1-0.1,0.1-0.2,0.1-0.2c0-0.1,0-0.1-0.1-0.2
		c-0.1-0.1-0.2-0.2-0.4-0.2l-7.5,1.1c0,0,0,0,0,0l0,0c0,0,0,0,0,0c-0.1,0-0.2,0.1-0.2,0.1c0,0,0,0,0,0c0,0,0,0,0,0l-3,3.8l1.8-4.5
		c0,0,0-0.1,0-0.1s0-0.1,0-0.1l-2.8-7.1c-0.1-0.3-0.6-0.3-0.7,0l-2.8,7.1c0,0,0,0.1,0,0.1s0,0.1,0,0.1l1.8,4.5l-3-3.8c0,0,0,0,0,0
		c0,0,0,0,0,0c-0.1-0.1-0.1-0.1-0.2-0.1c0,0,0,0,0,0l0,0c0,0,0,0,0,0l-7.5-1.1c0,0,0,0,0,0c0,0-0.1,0-0.1,0c0,0,0,0-0.1,0
		c0,0,0,0,0,0c0,0-0.1,0-0.1,0c0,0,0,0,0,0c0,0,0,0,0,0c0,0-0.1,0.1-0.1,0.1c0,0,0,0,0,0.1c0,0,0,0,0,0.1c0,0,0,0,0,0.1c0,0,0,0,0,0
		c0,0,0,0,0,0c0,0.1,0,0.2,0.1,0.2l0,0c0,0,0,0,0,0l4.7,6c0,0,0,0,0,0c0,0,0,0,0,0c0.1,0.1,0.1,0.1,0.2,0.1c0,0,0,0,0,0l4.8,0.7
		l-4.8,0.7c-0.1,0-0.2,0.1-0.3,0.1l-4.7,6c0,0,0,0,0,0l0,0c-0.1,0.1-0.1,0.2-0.1,0.2c0,0,0,0,0,0c0,0,0,0,0,0c0,0,0,0,0,0.1
		c0,0,0,0,0,0c0,0.1,0.1,0.1,0.1,0.2c0,0,0,0,0,0c0,0,0,0,0,0c0.1,0.1,0.2,0.1,0.2,0.1c0,0,0,0,0,0c0,0,0,0,0,0c0,0,0,0,0,0
		c0,0,0,0,0,0c0,0,0,0,0.1,0l7.6-1.1c0,0,0,0,0,0c0.1,0,0.1-0.1,0.2-0.1c0,0,0,0,0,0c0,0,0,0,0,0l3-3.8l-1.8,4.5c0,0,0,0.1,0,0.1
		s0,0.1,0,0.1l2.8,7.1c0.1,0.2,0.2,0.3,0.4,0.3s0.3-0.1,0.4-0.3l2.8-7.1c0,0,0-0.1,0-0.1s0-0.1,0-0.1l-1.8-4.5l3,3.8
		c0.1,0.1,0.2,0.1,0.3,0.1l7.6,1.1c0,0,0,0,0.1,0c0.1,0,0.3-0.1,0.3-0.2c0-0.1,0.1-0.1,0.1-0.2c0-0.1,0-0.2-0.1-0.2l-4.7-6
		c0,0,0,0,0,0c0,0,0,0,0,0c-0.1-0.1-0.1-0.1-0.2-0.1c0,0,0,0,0,0l0,0c0,0,0,0,0,0l-4.8-0.7L364.3,356C364.3,356,364.3,356,364.3,356
		z"/>
        <path class="snow1" d="M421.3,299.2l4.7-6c0.1-0.1,0.1-0.2,0.1-0.2c0-0.1,0-0.1-0.1-0.2c-0.1-0.1-0.2-0.2-0.4-0.2l-7.6,1.1
		c-0.1,0-0.2,0.1-0.3,0.1l-3,3.8l1.8-4.5c0,0,0-0.1,0-0.1s0-0.1,0-0.1l-2.8-7.1c0,0,0,0,0,0c0,0,0,0,0,0c0-0.1-0.1-0.1-0.2-0.1
		c0,0,0,0,0,0c0,0-0.1,0-0.1,0c0,0,0,0-0.1,0c0,0-0.1,0-0.1,0c0,0,0,0,0,0c0,0,0,0,0,0c-0.1,0-0.1,0.1-0.2,0.1c0,0,0,0,0,0
		c0,0,0,0,0,0l-2.8,7.1c0,0,0,0.1,0,0.1c0,0,0,0,0,0c0,0,0,0,0,0s0,0,0,0c0,0,0,0,0,0c0,0,0,0.1,0,0.1l1.8,4.5l-3-3.8c0,0,0,0,0,0
		c0,0,0,0,0,0c-0.1-0.1-0.1-0.1-0.2-0.1c0,0,0,0,0,0l-7.6-1.1c-0.2,0-0.3,0.1-0.4,0.2c0,0.1-0.1,0.1-0.1,0.2c0,0.1,0,0.2,0.1,0.2
		l4.7,6c0.1,0.1,0.2,0.1,0.3,0.1l4.8,0.7l-4.8,0.7c-0.1,0-0.2,0.1-0.3,0.1l-4.7,6c-0.1,0.1-0.1,0.2-0.1,0.2c0,0.1,0,0.1,0.1,0.2
		c0.1,0.1,0.2,0.2,0.3,0.2c0,0,0,0,0.1,0l7.6-1.1c0.1,0,0.2-0.1,0.3-0.1l3-3.8l-1.8,4.5c0,0,0,0.1,0,0.1s0,0.1,0,0.1l2.8,7.1
		c0,0,0,0,0,0c0,0,0,0.1,0.1,0.1c0,0,0.1,0.1,0.1,0.1c0,0,0,0,0,0c0,0,0.1,0,0.1,0s0.1,0,0.1,0c0,0,0,0,0,0c0,0,0.1,0,0.1-0.1
		c0,0,0.1-0.1,0.1-0.1c0,0,0,0,0,0l2.8-7.1c0,0,0-0.1,0-0.1s0-0.1,0-0.1l-1.8-4.5l3,3.8c0,0,0,0,0,0c0,0,0,0,0,0
		c0.1,0.1,0.1,0.1,0.2,0.1c0,0,0,0,0,0l7.6,1.1c0,0,0,0,0.1,0c0,0,0,0,0,0c0,0,0,0,0,0c0,0,0,0,0,0c0,0,0,0,0,0c0.1,0,0.2,0,0.2-0.1
		c0,0,0,0,0,0c0,0,0,0,0,0c0.1-0.1,0.1-0.1,0.1-0.2c0,0,0,0,0,0c0,0,0,0,0-0.1c0,0,0,0,0,0c0,0,0,0,0,0c0-0.1,0-0.2-0.1-0.2l0,0
		c0,0,0,0,0,0l-4.7-6c-0.1-0.1-0.2-0.1-0.3-0.1l-4.8-0.7l4.8-0.7C421.1,299.3,421.2,299.2,421.3,299.2z"/>
        <path class="snow1" d="M336,299.3c0.1,0,0.1-0.1,0.2-0.1c0,0,0,0,0,0c0,0,0,0,0,0l4.7-6c0.1-0.1,0.1-0.2,0.1-0.2c0-0.1,0-0.1-0.1-0.2
		c-0.1-0.1-0.2-0.2-0.4-0.2l-7.6,1.1c-0.1,0-0.2,0.1-0.3,0.1l-3,3.8l1.8-4.5c0,0,0-0.1,0-0.1s0-0.1,0-0.1l-2.8-7.1
		c-0.1-0.2-0.2-0.3-0.4-0.3s-0.3,0.1-0.4,0.3l-2.8,7.1c0,0,0,0.1,0,0.1s0,0.1,0,0.1l1.8,4.5l-3-3.8c0,0,0,0,0,0c0,0,0,0,0,0
		c-0.1-0.1-0.1-0.1-0.2-0.1c0,0,0,0,0,0l-7.6-1.1c0,0,0,0,0,0c0,0-0.1,0-0.1,0c0,0,0,0-0.1,0c0,0,0,0-0.1,0c0,0,0,0-0.1,0
		c0,0,0,0,0,0c0,0,0,0,0,0c0,0-0.1,0.1-0.1,0.1c0,0,0,0,0,0.1c0,0,0,0,0,0.1c0,0,0,0,0,0.1c0,0,0,0,0,0c0,0,0,0,0,0
		c0,0.1,0,0.2,0.1,0.2l4.7,6c0,0,0,0,0,0c0,0,0,0,0,0c0.1,0.1,0.1,0.1,0.2,0.1c0,0,0,0,0,0l4.8,0.7l-4.8,0.7c0,0,0,0,0,0
		c-0.1,0-0.2,0.1-0.2,0.1c0,0,0,0,0,0c0,0,0,0,0,0l-4.7,6c0,0,0,0,0,0l0,0c-0.1,0.1-0.1,0.2-0.1,0.2c0,0,0,0,0,0c0,0,0,0,0,0
		c0,0,0,0,0,0.1c0,0,0,0,0,0c0,0.1,0.1,0.1,0.1,0.2c0,0,0,0,0,0c0,0,0,0,0,0c0.1,0.1,0.2,0.1,0.2,0.1c0,0,0,0,0,0c0,0,0,0,0,0
		c0,0,0,0,0,0c0,0,0,0,0,0c0,0,0,0,0.1,0l7.6-1.1c0,0,0,0,0,0c0.1,0,0.1-0.1,0.2-0.1c0,0,0,0,0,0c0,0,0,0,0,0l3-3.8l-1.8,4.5
		c0,0,0,0.1,0,0.1s0,0.1,0,0.1l2.8,7.1c0,0,0,0,0,0c0,0,0,0.1,0.1,0.1c0,0,0.1,0.1,0.1,0.1c0,0,0,0,0,0c0,0,0.1,0,0.1,0s0.1,0,0.1,0
		c0,0,0,0,0,0c0,0,0.1,0,0.1-0.1c0,0,0.1-0.1,0.1-0.1c0,0,0,0,0,0l2.8-7.1c0,0,0-0.1,0-0.1s0-0.1,0-0.1l-1.8-4.5l3,3.8c0,0,0,0,0,0
		c0,0,0,0,0,0c0.1,0.1,0.1,0.1,0.2,0.1c0,0,0,0,0,0l7.6,1.1c0,0,0,0,0.1,0c0,0,0,0,0,0c0,0,0,0,0,0c0,0,0,0,0,0c0,0,0,0,0,0
		c0.1,0,0.2,0,0.2-0.1c0,0,0,0,0,0c0,0,0,0,0,0c0.1-0.1,0.1-0.1,0.1-0.2c0,0,0,0,0,0c0,0,0,0,0-0.1c0,0,0,0,0,0c0,0,0,0,0,0
		c0-0.1,0-0.2-0.1-0.2l0,0c0,0,0,0,0,0l-4.7-6c0,0,0,0,0,0c0,0,0,0,0,0c-0.1-0.1-0.1-0.1-0.2-0.1c0,0,0,0,0,0l-4.8-0.7L336,299.3
		C336,299.3,336,299.3,336,299.3z"/>
        <path class="snow1" d="M449.6,244.1C449.6,244.1,449.6,244.1,449.6,244.1C449.6,244.1,449.6,244.1,449.6,244.1
		c-0.1-0.1-0.2-0.1-0.2-0.1c0,0,0,0,0,0l-4.8-0.7l4.8-0.7c0.1,0,0.2-0.1,0.3-0.1l4.7-6c0.1-0.1,0.1-0.2,0.1-0.2c0-0.1,0-0.1-0.1-0.2
		c-0.1-0.1-0.2-0.2-0.4-0.2l-7.6,1.1c0,0,0,0,0,0c-0.1,0-0.2,0.1-0.2,0.1c0,0,0,0,0,0c0,0,0,0,0,0l-3,3.8l1.8-4.5c0,0,0-0.1,0-0.1
		c0,0,0,0,0,0c0,0,0,0,0,0s0,0,0,0c0,0,0,0,0,0c0,0,0-0.1,0-0.1l-2.8-7.1c0,0,0,0,0,0c0,0,0,0,0,0c0-0.1-0.1-0.1-0.2-0.1
		c0,0,0,0,0,0c0,0-0.1,0-0.1,0c0,0,0,0-0.1,0c0,0-0.1,0-0.1,0c0,0,0,0,0,0c0,0,0,0,0,0c-0.1,0-0.1,0.1-0.2,0.1c0,0,0,0,0,0
		c0,0,0,0,0,0l-2.8,7.1c0,0,0,0.1,0,0.1s0,0.1,0,0.1l1.8,4.5l-3-3.8c0,0,0,0,0,0c0,0,0,0,0,0c-0.1-0.1-0.1-0.1-0.2-0.1c0,0,0,0,0,0
		l-7.6-1.1c-0.2,0-0.3,0.1-0.4,0.2c0,0.1-0.1,0.1-0.1,0.2c0,0.1,0,0.2,0.1,0.2l4.7,6c0,0,0,0,0,0c0,0,0,0,0,0
		c0.1,0.1,0.1,0.1,0.2,0.1c0,0,0,0,0,0l4.8,0.7l-4.8,0.7c-0.1,0-0.2,0.1-0.3,0.1l-4.7,6c-0.1,0.1-0.1,0.2-0.1,0.2
		c0,0.1,0,0.1,0.1,0.2c0.1,0.1,0.2,0.2,0.4,0.2l7.6-1.1c0.1,0,0.2-0.1,0.3-0.1l3-3.8l-1.8,4.5c0,0,0,0.1,0,0.1s0,0.1,0,0.1l2.8,7.1
		c0.1,0.2,0.2,0.3,0.4,0.3s0.3-0.1,0.4-0.3l2.8-7.1c0,0,0-0.1,0-0.1s0-0.1,0-0.1l-1.8-4.5l3,3.8c0.1,0.1,0.2,0.1,0.3,0.1l7.6,1.1
		c0,0,0,0,0.1,0c0.1,0,0.3-0.1,0.3-0.2c0-0.1,0.1-0.1,0.1-0.2c0-0.1,0-0.2-0.1-0.2L449.6,244.1z"/>
</g>
</svg>
