<?xml version="1.0" encoding="utf-8"?>
<!-- Generator: Adobe Illustrator 27.8.1, SVG Export Plug-In . SVG Version: 6.00 Build 0)  -->
<svg version="1.1" id="Layer_1"
	 xmlns="http://www.w3.org/2000/svg" x="0px" y="0px" viewBox="0 0 600 600"
	 style="enable-background:new 0 0 600 600;" xml:space="preserve">
<style type="text/css">
	.windy_rain3{fill:#009AD1;stroke:#009AD1;stroke-width:0.8035;stroke-linecap:round;stroke-linejoin:round;stroke-miterlimit:113.3858;}
</style>
    <path class="windy_rain3" d="M316.1,224.6l1.1-42.3l-26.4,33.1c-4.9,6.1-3.9,15,2.3,19.9c6.1,4.9,15,3.9,19.9-2.3
	C314.9,230.6,316,227.8,316.1,224.6z"/>
    <path class="windy_rain3" d="M190.1,239.1l1.1-42.3l-26.3,33.1c-4.9,6.1-3.9,15,2.3,19.9c6.1,4.9,15,3.9,19.9-2.3
	C189,245.1,190,242.2,190.1,239.1z"/>
    <path class="windy_rain3" d="M429.9,326.4L431,284l-26.4,33.1c-4.9,6.1-3.9,15,2.3,19.9c6.1,4.9,15,3.9,19.9-2.3
	C428.7,332.5,429.8,329.5,429.9,326.4z"/>
    <path class="windy_rain3" d="M270,268.2l1.1-42.3L244.7,259c-4.9,6.1-3.9,15,2.3,19.9c6.1,4.9,15,3.9,19.9-2.3
	C268.9,274.2,270,271.2,270,268.2z"/>
    <path class="windy_rain3" d="M349.9,297.4l1.1-42.3l-26.4,33.1c-4.9,6.1-3.9,15,2.3,19.9c6.1,4.9,15,3.9,19.9-2.3
	C348.8,303.4,349.9,300.4,349.9,297.4z"/>
    <path class="windy_rain3" d="M396,253.8l1.1-42.3l-26.4,33.1c-4.9,6.1-3.9,15,2.3,19.9c6.1,4.9,15,3.9,19.9-2.3
	C394.8,259.8,395.9,256.9,396,253.8z"/>
    <path class="windy_rain3" d="M277.3,331.1l1.1-42.3L252,322c-4.9,6.1-3.9,15,2.3,19.9c6.1,4.9,15,3.9,19.9-2.3
	C276.1,337.2,277.2,334.2,277.3,331.1z"/>
    <path class="windy_rain3" d="M151.3,345.6l1.1-42.3l-26.3,33.1c-4.9,6.1-3.9,15,2.3,19.9c6.1,4.9,15,3.9,19.9-2.3
	C150.2,351.8,151.3,348.8,151.3,345.6z"/>
    <path class="windy_rain3" d="M437.1,389.4l1.1-42.3l-26.4,33.1c-4.9,6.1-3.9,15,2.3,19.9c6.1,4.9,15,3.9,19.9-2.3
	C435.9,395.5,437,392.5,437.1,389.4z"/>
    <path class="windy_rain3" d="M231.3,374.8l1.1-42.3L206,365.5c-4.9,6.1-3.9,15,2.3,19.9c6.1,4.9,15,3.9,19.9-2.3
	C230.1,380.9,231.2,377.9,231.3,374.8z"/>
    <path class="windy_rain3" d="M357.2,360.2l1.1-42.3L331.9,351c-4.9,6.1-3.9,15,2.3,19.9c6.1,4.9,15,3.9,19.9-2.3
	C356,366.4,357.1,363.4,357.2,360.2z"/>
    <path class="windy_rain3" d="M311.2,403.9l1.1-42.3l-26.4,33.1c-4.9,6.1-3.9,15,2.3,19.9c6.1,4.9,15,3.9,19.9-2.3
	C310,409.9,311.1,407,311.2,403.9z"/>
    <path class="windy_rain3" d="M197.4,302.1l1.1-42.3l-26.4,33.1c-4.9,6.1-3.9,15,2.3,19.9c6.1,4.9,15,3.9,19.9-2.3
	C196.2,308.1,197.3,305.1,197.4,302.1z"/>
    <path class="windy_rain3" d="M391.1,433l1.1-42.3l-26.4,33.1c-4.9,6.1-3.9,15,2.3,19.9c6.1,4.9,15,3.9,19.9-2.3C389.9,439,391,436,391.1,433
	z"/>
    <path class="windy_rain3" d="M239.2,195.4l1.1-42.3l-26.4,33.1c-4.9,6.1-3.9,15,2.3,19.9c6.1,4.9,15,3.9,19.9-2.3
	C238,201.4,239.1,198.4,239.2,195.4z"/>
    <path class="windy_rain3" d="M475.9,290l1.1-42.3l-26.4,33.1c-4.9,6.1-3.9,15,2.3,19.9c6.1,4.9,15,3.9,19.9-2.3
	C474.7,296.1,475.8,293.1,475.9,290z"/>
</svg>
