<?xml version="1.0" encoding="utf-8"?>
<!-- Generator: Adobe Illustrator 27.8.1, SVG Export Plug-In . SVG Version: 6.00 Build 0)  -->
<svg version="1.1" id="Layer_1"
	 xmlns="http://www.w3.org/2000/svg" x="0px" y="0px" viewBox="0 0 600 600"
	 style="enable-background:new 0 0 600 600;" xml:space="preserve">
<style type="text/css">
	.wind2{fill:#F2F2F2;stroke:#FFFFFF;stroke-width:0.8035;stroke-linecap:round;stroke-linejoin:round;stroke-miterlimit:113.3858;}
</style>
    <path class="wind2" d="M440.1,325.3h-170c-15.7,0-28.5,12.8-28.5,28.5c0,15.7,12.8,28.5,28.5,28.5c15.7,0,28.5-12.8,28.5-28.5h14.2
	c0,23.6-19.1,42.7-42.7,42.7c-23.6,0-42.7-19.1-42.7-42.7c0-23.6,19.1-42.7,42.7-42.7h170.1v14.2H440.1z"/>
    <path class="wind2" d="M247.8,272.3c12.2-22.7,3.7-51.1-19.1-63.3c-22.7-12.1-51-3.6-63.2,19.1c-12.2,22.7-3.7,51.1,19,63.3
	c6.8,3.6,14.4,5.6,22.1,5.6h205.3v-14.2H206.6c-18,0-32.5-14.6-32.5-32.5c0-18,14.6-32.5,32.5-32.5s32.5,14.6,32.5,32.5
	c0,5.4-1.3,10.7-3.9,15.4L247.8,272.3z"/>
</svg>
