<?xml version="1.0" encoding="utf-8"?>
<!-- Generator: Adobe Illustrator 27.8.1, SVG Export Plug-In . SVG Version: 6.00 Build 0)  -->
<svg version="1.1" id="Layer_1"
	 xmlns="http://www.w3.org/2000/svg" x="0px" y="0px" viewBox="0 0 600 600"
	 style="enable-background:new 0 0 600 600;" xml:space="preserve">
<style type="text/css">
	.cloudy1{fill:#888888;stroke:#888888;stroke-width:0.8035;stroke-linecap:round;stroke-linejoin:round;stroke-miterlimit:113.3858;}
</style>
    <path class="cloudy1" d="M413.4,290.7c7.8,0,14.2,6.3,14.2,14.2c0,7.8-6.3,14.2-14.2,14.2H385c-7.8,0-14.2-6.3-14.2-14.2
	c0-7.8,6.3-14.2,14.2-14.2H413.4z"/>
    <path class="cloudy1" d="M441.7,248.2h-28.3c-7.8,0-14.2,6.3-14.2,14.2c0,7.8,6.3,14.2,14.2,14.2h28.3c7.8,0,14.2-6.3,14.2-14.2
	C455.9,254.6,449.6,248.2,441.7,248.2z"/>
    <path class="cloudy1" d="M200.8,236.5c-22.1-7.8-46.4,3.7-54.3,25.9s3.7,46.4,25.9,54.3c4.6,1.6,9.4,2.4,14.2,2.4h99.2
	c47,0,85-38.1,85-85c0-47-38.1-85-85-85s-85,38.1-85,85C200.8,234.9,200.8,235.7,200.8,236.5z"/>
</svg>
