<?xml version="1.0" encoding="utf-8"?>
<!-- Generator: Adobe Illustrator 27.8.1, SVG Export Plug-In . SVG Version: 6.00 Build 0)  -->
<svg version="1.1" id="Layer_1" xmlns:shaper="http://www.shapertools.com/namespaces/shaper"
	 shaper:fusionaddin="version:1.7.0"
	 xmlns="http://www.w3.org/2000/svg" x="0px" y="0px" viewBox="0 0 600 600"
	 style="enable-background:new 0 0 600 600;" xml:space="preserve">
<style type="text/css">
	.snow2{fill:#DDDDDD;}
</style>
    <g>
	<path class="snow2" d="M165.9,270.9c0.1,0,0.1-0.1,0.2-0.1c0,0,0,0,0,0c0,0,0,0,0,0l4.7-6c0.1-0.1,0.1-0.2,0.1-0.2
		c0-0.1,0-0.1-0.1-0.2c-0.1-0.1-0.2-0.2-0.4-0.2l-7.6,1.1c-0.1,0-0.2,0.1-0.3,0.1l-3,3.8l1.8-4.5c0,0,0-0.1,0-0.1c0,0,0,0,0,0
		c0,0,0,0,0,0s0,0,0,0c0,0,0,0,0,0c0,0,0-0.1,0-0.1l-2.8-7.1c0,0,0,0,0,0c0,0,0,0,0,0c0-0.1-0.1-0.1-0.2-0.1c0,0,0,0,0,0
		c0,0-0.1,0-0.1,0c0,0,0,0-0.1,0c0,0-0.1,0-0.1,0c0,0,0,0,0,0c0,0,0,0,0,0c-0.1,0-0.1,0.1-0.2,0.1c0,0,0,0,0,0c0,0,0,0,0,0l-2.8,7.1
		c0,0,0,0.1,0,0.1c0,0,0,0,0,0c0,0,0,0,0,0s0,0,0,0c0,0,0,0,0,0c0,0,0,0.1,0,0.1l1.8,4.5l-3-3.8c-0.1-0.1-0.2-0.1-0.3-0.1l-7.6-1.1
		c-0.2,0-0.3,0.1-0.4,0.2c0,0.1-0.1,0.1-0.1,0.2c0,0.1,0,0.2,0.1,0.2l4.7,6c0,0,0,0,0,0c0,0,0,0,0,0c0.1,0.1,0.1,0.1,0.2,0.1
		c0,0,0,0,0,0l4.8,0.7l-4.8,0.7c0,0,0,0,0,0c-0.1,0-0.2,0.1-0.2,0.1c0,0,0,0,0,0c0,0,0,0,0,0l-4.7,6c-0.1,0.1-0.1,0.2-0.1,0.2
		c0,0,0,0,0,0c0,0,0,0,0,0c0,0,0,0,0,0.1c0,0,0,0,0,0c0,0.1,0.1,0.1,0.1,0.2c0,0,0,0,0,0c0,0,0,0,0,0c0.1,0.1,0.2,0.1,0.2,0.1
		c0,0,0,0,0.1,0l7.6-1.1c0.1,0,0.2-0.1,0.3-0.1l3-3.8l-1.8,4.5c0,0,0,0.1,0,0.1s0,0.1,0,0.1l2.8,7.1c0.1,0.2,0.2,0.3,0.4,0.3
		s0.3-0.1,0.4-0.3l2.8-7.1c0,0,0-0.1,0-0.1s0-0.1,0-0.1l-1.8-4.5l3,3.8c0.1,0.1,0.2,0.1,0.3,0.1l7.6,1.1c0,0,0,0,0,0c0,0,0,0,0,0
		c0,0,0,0,0,0c0.1,0,0.2,0,0.2-0.1c0,0,0,0,0,0c0,0,0,0,0,0c0,0,0.1-0.1,0.1-0.1c0,0,0,0,0-0.1c0,0,0,0,0-0.1c0,0,0,0,0-0.1
		c0,0,0,0,0,0c0,0,0,0,0,0c0-0.1,0-0.2-0.1-0.2l-4.7-6c0,0,0,0,0,0c0,0,0,0,0,0c-0.1-0.1-0.1-0.1-0.2-0.1c0,0,0,0,0,0l-4.8-0.7
		L165.9,270.9C165.9,271,165.9,271,165.9,270.9z"/>
        <path class="snow2" d="M194.5,214.1l4.7-6c0.1-0.1,0.1-0.3,0-0.4c-0.1-0.1-0.2-0.2-0.4-0.2l-7.6,1.1c-0.1,0-0.2,0.1-0.3,0.1l-3,3.8
		l1.8-4.5c0-0.1,0-0.2,0-0.3l-2.8-7.1c-0.1-0.3-0.6-0.3-0.7,0l-2.8,7.1c0,0.1,0,0.2,0,0.3l1.8,4.5l-3-3.8c-0.1-0.1-0.2-0.1-0.3-0.1
		l-7.6-1.1c-0.2,0-0.3,0.1-0.4,0.2c-0.1,0.1-0.1,0.3,0,0.4l4.7,6c0.1,0.1,0.2,0.1,0.3,0.1l4.8,0.7l-4.8,0.7c-0.1,0-0.2,0.1-0.3,0.1
		l-4.7,6c-0.1,0.1-0.1,0.3,0,0.4c0.1,0.1,0.2,0.2,0.4,0.2l7.6-1.1c0.1,0,0.2-0.1,0.3-0.1l3-3.8l-1.8,4.5c0,0.1,0,0.2,0,0.3l2.8,7.1
		c0.1,0.2,0.2,0.3,0.4,0.3s0.3-0.1,0.4-0.3l2.8-7.1c0-0.1,0-0.2,0-0.3l-1.8-4.5l3,3.8c0.1,0.1,0.2,0.1,0.3,0.1l7.6,1.1
		c0.2,0,0.3-0.1,0.4-0.2c0.1-0.1,0.1-0.3,0-0.4l-4.7-6c-0.1-0.1-0.2-0.1-0.3-0.1l-4.8-0.7l4.8-0.7
		C194.3,214.3,194.4,214.2,194.5,214.1z"/>
        <path class="snow2" d="M279.5,327.5l4.7-6c0.1-0.1,0.1-0.2,0.1-0.2c0-0.1,0-0.1-0.1-0.2c-0.1-0.1-0.2-0.2-0.4-0.2l-7.6,1.1
		c0,0,0,0,0,0c-0.1,0-0.2,0.1-0.2,0.1c0,0,0,0,0,0c0,0,0,0,0,0l-3,3.8l1.8-4.5c0,0,0-0.1,0-0.1s0-0.1,0-0.1L272,314c0,0,0,0,0,0
		c0,0,0,0,0,0c0-0.1-0.1-0.1-0.2-0.1c0,0,0,0,0,0c0,0,0,0-0.1,0c0,0-0.1,0-0.1,0c0,0-0.1,0-0.1,0c0,0,0,0,0,0c0,0,0,0,0,0
		c-0.1,0-0.1,0.1-0.2,0.1c0,0,0,0,0,0c0,0,0,0,0,0l-2.8,7.1c0,0,0,0.1,0,0.1s0,0.1,0,0.1l1.8,4.5l-3-3.8c0,0,0,0,0,0c0,0,0,0,0,0
		c-0.1-0.1-0.1-0.1-0.2-0.1c0,0,0,0,0,0l0,0c0,0,0,0,0,0l-7.5-1.1c0,0,0,0,0,0c0,0-0.1,0-0.1,0c-0.1,0-0.2,0-0.2,0.1c0,0,0,0,0,0
		c0,0,0,0,0,0c0,0-0.1,0.1-0.1,0.1c0,0,0,0,0,0.1c0,0,0,0,0,0.1c0,0,0,0,0,0.1c0,0,0,0,0,0c0,0,0,0,0,0c0,0.1,0,0.2,0.1,0.2l4.7,6
		c0,0,0,0,0,0c0,0,0,0,0,0c0.1,0.1,0.1,0.1,0.2,0.1c0,0,0,0,0,0l4.8,0.7L264,329c-0.1,0-0.2,0.1-0.3,0.1l-4.7,6
		c-0.1,0.1-0.1,0.2-0.1,0.2c0,0,0,0,0,0c0,0,0,0,0,0c0,0,0,0,0,0.1c0,0,0,0,0,0.1c0,0,0,0,0,0.1c0,0,0,0.1,0.1,0.1c0,0,0,0,0,0
		c0,0,0,0,0,0c0.1,0,0.1,0.1,0.2,0.1c0,0,0,0,0,0c0,0,0,0,0,0c0,0,0,0,0,0l7.6-1.1c0.1,0,0.2-0.1,0.3-0.1l3-3.8l-1.8,4.5
		c0,0,0,0.1,0,0.1s0,0.1,0,0.1l2.8,7.1c0.1,0.2,0.2,0.3,0.4,0.3s0.3-0.1,0.4-0.3l2.8-7.1c0,0,0-0.1,0-0.1s0-0.1,0-0.1l-1.8-4.5
		l3,3.8c0,0,0,0,0,0c0,0,0,0,0,0c0.1,0.1,0.1,0.1,0.2,0.1c0,0,0,0,0,0l7.6,1.1c0,0,0,0,0.1,0c0.1,0,0.2,0,0.2-0.1c0,0,0,0,0,0
		c0,0,0,0,0,0c0.1-0.1,0.1-0.1,0.1-0.2c0,0,0,0,0,0c0,0,0,0,0-0.1c0,0,0,0,0,0c0,0,0,0,0,0c0-0.1,0-0.2-0.1-0.2l-4.7-6c0,0,0,0,0,0
		c0,0,0,0,0,0c-0.1-0.1-0.1-0.1-0.2-0.1c0,0,0,0,0,0l0,0c0,0,0,0,0,0l-4.8-0.7l4.8-0.7C279.4,327.6,279.5,327.6,279.5,327.5z"/>
        <path class="snow2" d="M421.3,270.8l4.7-6c0.1-0.1,0.1-0.2,0.1-0.2c0-0.1,0-0.1-0.1-0.2c-0.1-0.1-0.2-0.2-0.4-0.2l-7.6,1.1
		c0,0,0,0,0,0c-0.1,0-0.2,0.1-0.2,0.1c0,0,0,0,0,0c0,0,0,0,0,0l-3,3.8l1.8-4.5c0,0,0-0.1,0-0.1s0-0.1,0-0.1l-2.8-7.1
		c-0.1-0.3-0.6-0.3-0.7,0l-2.8,7.1c0,0,0,0.1,0,0.1s0,0.1,0,0.1l1.8,4.5l-3-3.8c-0.1-0.1-0.2-0.1-0.3-0.1l-7.6-1.1
		c-0.2,0-0.3,0.1-0.4,0.2c0,0.1-0.1,0.1-0.1,0.2c0,0.1,0,0.2,0.1,0.2l4.7,6c0.1,0.1,0.2,0.1,0.3,0.1l4.8,0.7l-4.8,0.7
		c-0.1,0-0.2,0.1-0.3,0.1l-4.7,6c-0.1,0.1-0.1,0.2-0.1,0.2c0,0.1,0,0.1,0.1,0.2c0.1,0.1,0.2,0.2,0.3,0.2c0,0,0,0,0.1,0l7.6-1.1
		c0.1,0,0.2-0.1,0.3-0.1l3-3.8l-1.8,4.5c0,0,0,0.1,0,0.1s0,0.1,0,0.1l2.8,7.1c0.1,0.2,0.2,0.3,0.4,0.3s0.3-0.1,0.4-0.3l2.8-7.1
		c0,0,0-0.1,0-0.1s0-0.1,0-0.1l-1.8-4.5l3,3.8c0,0,0,0,0,0c0,0,0,0,0,0c0.1,0.1,0.1,0.1,0.2,0.1c0,0,0,0,0,0l7.6,1.1c0,0,0,0,0.1,0
		c0,0,0,0,0,0c0,0,0,0,0,0c0,0,0,0,0,0c0,0,0,0,0,0c0.1,0,0.2,0,0.2-0.1c0,0,0,0,0,0c0,0,0,0,0,0c0.1-0.1,0.1-0.1,0.1-0.2
		c0,0,0,0,0,0c0,0,0,0,0-0.1c0,0,0,0,0,0c0,0,0,0,0,0c0-0.1,0-0.2-0.1-0.2l-4.7-6c-0.1-0.1-0.2-0.1-0.3-0.1l-4.8-0.7l4.8-0.7
		C421.1,270.9,421.2,270.9,421.3,270.8z"/>
        <path class="snow2" d="M364.3,327.6c0.1,0,0.1-0.1,0.2-0.1c0,0,0,0,0,0c0,0,0,0,0,0l4.7-6c0.1-0.1,0.1-0.2,0.1-0.2
		c0-0.1,0-0.1-0.1-0.2c-0.1-0.1-0.2-0.2-0.4-0.2l-7.6,1.1c0,0,0,0,0,0c-0.1,0-0.2,0.1-0.2,0.1c0,0,0,0,0,0c0,0,0,0,0,0l-3,3.8
		l1.8-4.5c0,0,0-0.1,0-0.1s0-0.1,0-0.1l-2.8-7.1c0,0,0,0,0,0c0,0,0,0,0,0c0-0.1-0.1-0.1-0.2-0.1c0,0,0,0,0,0c0,0-0.1,0-0.1,0
		c0,0,0,0-0.1,0c0,0-0.1,0-0.1,0c0,0,0,0,0,0c0,0,0,0,0,0c-0.1,0-0.1,0.1-0.2,0.1c0,0,0,0,0,0c0,0,0,0,0,0l-2.8,7.1c0,0,0,0.1,0,0.1
		s0,0.1,0,0.1l1.8,4.5l-3-3.8c-0.1-0.1-0.2-0.1-0.3-0.1l-7.6-1.1c-0.2,0-0.3,0.1-0.4,0.2c0,0.1-0.1,0.1-0.1,0.2c0,0.1,0,0.2,0.1,0.2
		l4.7,6c0.1,0.1,0.2,0.1,0.3,0.1l4.8,0.7l-4.8,0.7c0,0,0,0,0,0c-0.1,0-0.2,0.1-0.2,0.1c0,0,0,0,0,0c0,0,0,0,0,0l-4.7,6
		c-0.1,0.1-0.1,0.2-0.1,0.2c0,0.1,0,0.1,0.1,0.2c0.1,0.1,0.2,0.2,0.3,0.2c0,0,0,0,0.1,0l7.6-1.1c0.1,0,0.2-0.1,0.3-0.1l3-3.8
		l-1.8,4.5c0,0,0,0.1,0,0.1s0,0.1,0,0.1l2.8,7.1c0.1,0.2,0.2,0.3,0.4,0.3s0.3-0.1,0.4-0.3l2.8-7.1c0,0,0-0.1,0-0.1s0-0.1,0-0.1
		l-1.8-4.5l3,3.8c0.1,0.1,0.2,0.1,0.3,0.1l7.6,1.1c0,0,0,0,0,0c0,0,0,0,0,0c0,0,0,0,0,0c0.1,0,0.2,0,0.2-0.1c0,0,0,0,0,0
		c0,0,0,0,0,0c0,0,0.1-0.1,0.1-0.1c0,0,0,0,0-0.1c0,0,0,0,0-0.1c0,0,0,0,0-0.1c0,0,0,0,0,0c0,0,0,0,0,0c0-0.1,0-0.2-0.1-0.2l0,0
		c0,0,0,0,0,0l-4.7-6c0,0,0,0,0,0c0,0,0,0,0,0c-0.1-0.1-0.1-0.1-0.2-0.1c0,0,0,0,0,0l0,0c0,0,0,0,0,0l-4.8-0.7L364.3,327.6
		C364.3,327.7,364.3,327.6,364.3,327.6z"/>
        <path class="snow2" d="M364.3,214.3c0.1,0,0.1-0.1,0.2-0.1c0,0,0,0,0,0c0,0,0,0,0,0l4.7-6c0.1-0.1,0.1-0.2,0.1-0.2
		c0-0.1,0-0.1-0.1-0.2c-0.1-0.1-0.2-0.2-0.4-0.2l-7.6,1.1c0,0,0,0,0,0c-0.1,0-0.2,0.1-0.2,0.1c0,0,0,0,0,0c0,0,0,0,0,0l-3,3.8
		l1.8-4.5c0,0,0-0.1,0-0.1c0,0,0,0,0,0c0,0,0,0,0,0s0,0,0,0c0,0,0,0,0,0c0,0,0-0.1,0-0.1l-2.8-7.1c0,0,0,0,0,0c0,0,0,0,0,0
		c0-0.1-0.1-0.1-0.2-0.1c0,0,0,0,0,0c0,0,0,0-0.1,0c0,0,0,0-0.1,0c0,0-0.1,0-0.1,0c0,0,0,0,0,0c0,0,0,0,0,0c-0.1,0-0.1,0.1-0.2,0.1
		c0,0,0,0,0,0c0,0,0,0,0,0l-2.8,7.1c0,0,0,0.1,0,0.1s0,0.1,0,0.1l1.8,4.5l-3-3.8c0,0,0,0,0,0c0,0,0,0,0,0c-0.1-0.1-0.1-0.1-0.2-0.1
		c0,0,0,0,0,0l-7.6-1.1c0,0,0,0,0,0c0,0-0.1,0-0.1,0c0,0,0,0-0.1,0c0,0-0.1,0-0.1,0c0,0,0,0,0,0c0,0,0,0,0,0c0,0,0,0,0,0
		c0,0-0.1,0.1-0.1,0.1c0,0,0,0,0,0.1c0,0,0,0,0,0.1c0,0,0,0,0,0.1c0,0,0,0,0,0c0,0,0,0,0,0c0,0.1,0,0.2,0.1,0.2l4.7,6c0,0,0,0,0,0
		c0,0,0,0,0,0c0.1,0.1,0.1,0.1,0.2,0.1c0,0,0,0,0,0l4.8,0.7l-4.8,0.7c0,0,0,0,0,0c-0.1,0-0.2,0.1-0.2,0.1c0,0,0,0,0,0c0,0,0,0,0,0
		l-4.7,6c-0.1,0.1-0.1,0.2-0.1,0.2c0,0.1,0,0.1,0.1,0.2c0.1,0.1,0.2,0.2,0.4,0.2l7.6-1.1c0.1,0,0.2-0.1,0.3-0.1l3-3.8l-1.8,4.5
		c0,0,0,0.1,0,0.1c0,0,0,0,0,0c0,0,0,0,0,0s0,0,0,0c0,0,0,0,0,0c0,0,0,0.1,0,0.1l2.8,7.1c0.1,0.2,0.2,0.3,0.4,0.3s0.3-0.1,0.4-0.3
		l2.8-7.1c0,0,0-0.1,0-0.1s0-0.1,0-0.1l-1.8-4.5l3,3.8c0.1,0.1,0.2,0.1,0.3,0.1l7.6,1.1c0,0,0,0,0,0c0,0,0,0,0,0c0,0,0,0,0,0
		c0.1,0,0.2,0,0.2-0.1c0,0,0,0,0,0c0,0,0,0,0,0c0,0,0.1-0.1,0.1-0.1c0,0,0,0,0-0.1c0,0,0,0,0-0.1c0,0,0,0,0-0.1c0,0,0,0,0,0
		c0,0,0,0,0,0c0-0.1,0-0.2-0.1-0.2l-4.7-6c0,0,0,0,0,0c0,0,0,0,0,0c-0.1-0.1-0.1-0.1-0.2-0.1c0,0,0,0,0,0l-4.8-0.7L364.3,214.3
		C364.3,214.3,364.3,214.3,364.3,214.3z"/>
        <path class="snow2" d="M279.3,214.3c0.1,0,0.1-0.1,0.2-0.1c0,0,0,0,0,0c0,0,0,0,0,0l4.7-6c0.1-0.1,0.1-0.2,0.1-0.2
		c0-0.1,0-0.1-0.1-0.2c-0.1-0.1-0.2-0.2-0.4-0.2l-7.6,1.1c-0.1,0-0.2,0.1-0.3,0.1l-3,3.8l1.8-4.5c0,0,0-0.1,0-0.1s0-0.1,0-0.1
		l-2.8-7.1c-0.1-0.3-0.6-0.3-0.7,0l-2.8,7.1c0,0,0,0.1,0,0.1s0,0.1,0,0.1l1.8,4.5l-3-3.8c0,0,0,0,0,0c0,0,0,0,0,0
		c-0.1-0.1-0.1-0.1-0.2-0.1c0,0,0,0,0,0l-7.6-1.1c0,0,0,0,0,0c0,0,0,0-0.1,0c-0.1,0-0.2,0-0.2,0.1c0,0,0,0,0,0c0,0,0,0,0,0
		c0,0-0.1,0.1-0.1,0.1c0,0,0,0,0,0.1c0,0,0,0,0,0.1c0,0,0,0,0,0.1c0,0,0,0,0,0c0,0,0,0,0,0c0,0.1,0,0.2,0.1,0.2l4.7,6c0,0,0,0,0,0
		c0,0,0,0,0,0c0.1,0.1,0.1,0.1,0.2,0.1c0,0,0,0,0,0l4.8,0.7l-4.8,0.7c-0.1,0-0.2,0.1-0.3,0.1l-4.7,6c-0.1,0.1-0.1,0.2-0.1,0.2
		c0,0,0,0,0,0c0,0,0,0,0,0c0,0,0,0,0,0.1c0,0,0,0,0,0c0,0.1,0.1,0.1,0.1,0.2c0,0,0,0,0,0c0,0,0,0,0,0c0.1,0.1,0.2,0.1,0.2,0.1
		c0,0,0,0,0.1,0l7.6-1.1c0,0,0,0,0,0c0.1,0,0.1-0.1,0.2-0.1c0,0,0,0,0,0c0,0,0,0,0,0l3-3.8l-1.8,4.5c0,0,0,0.1,0,0.1c0,0,0,0,0,0
		c0,0,0,0,0,0s0,0,0,0c0,0,0,0,0,0c0,0,0,0.1,0,0.1l2.8,7.1c0.1,0.2,0.2,0.3,0.4,0.3s0.3-0.1,0.4-0.3l2.8-7.1c0,0,0-0.1,0-0.1
		s0-0.1,0-0.1l-1.8-4.5l3,3.8c0.1,0.1,0.2,0.1,0.3,0.1l7.6,1.1c0,0,0,0,0.1,0c0.1,0,0.3-0.1,0.3-0.2c0-0.1,0.1-0.1,0.1-0.2
		c0-0.1,0-0.2-0.1-0.2l-4.7-6c-0.1-0.1-0.2-0.1-0.3-0.1l-4.8-0.7L279.3,214.3C279.3,214.3,279.3,214.3,279.3,214.3z"/>
        <path class="snow2" d="M255.5,264.2l-7.6,1.1c-0.1,0-0.2,0.1-0.3,0.1l-3,3.8l1.8-4.5c0,0,0-0.1,0-0.1c0,0,0,0,0,0c0,0,0,0,0,0
		s0,0,0,0c0,0,0,0,0,0c0,0,0-0.1,0-0.1l-2.8-7.1c0,0,0,0,0,0c0,0,0,0,0,0c0-0.1-0.1-0.1-0.2-0.1c0,0,0,0,0,0c0,0-0.1,0-0.1,0
		c0,0,0,0-0.1,0c0,0-0.1,0-0.1,0c0,0,0,0,0,0c0,0,0,0,0,0c-0.1,0-0.1,0.1-0.2,0.1c0,0,0,0,0,0c0,0,0,0,0,0l-2.8,7.1c0,0,0,0.1,0,0.1
		s0,0.1,0,0.1l1.8,4.5l-3-3.8c0,0,0,0,0,0c0,0,0,0,0,0c-0.1-0.1-0.1-0.1-0.2-0.1c0,0,0,0,0,0l-7.6-1.1c-0.2,0-0.3,0.1-0.4,0.2
		c0,0.1-0.1,0.1-0.1,0.2c0,0.1,0,0.2,0.1,0.2l4.7,6c0.1,0.1,0.2,0.1,0.3,0.1l4.8,0.7l-4.8,0.7c-0.1,0-0.2,0.1-0.3,0.1l-4.7,6
		c-0.1,0.1-0.1,0.2-0.1,0.2c0,0.1,0,0.1,0.1,0.2c0.1,0.1,0.2,0.2,0.3,0.2c0,0,0,0,0.1,0l7.6-1.1c0.1,0,0.2-0.1,0.3-0.1l3-3.8
		l-1.8,4.5c0,0,0,0.1,0,0.1s0,0.1,0,0.1l2.8,7.1c0.1,0.2,0.2,0.3,0.4,0.3s0.3-0.1,0.4-0.3l2.8-7.1c0,0,0-0.1,0-0.1c0,0,0,0,0,0
		c0,0,0,0,0,0s0,0,0,0c0,0,0,0,0,0c0,0,0-0.1,0-0.1l-1.8-4.5l3,3.8c0,0,0,0,0,0c0,0,0,0,0,0c0.1,0.1,0.1,0.1,0.2,0.1c0,0,0,0,0,0
		l7.6,1.1c0,0,0,0,0.1,0c0.1,0,0.3-0.1,0.3-0.2c0-0.1,0.1-0.1,0.1-0.2c0-0.1,0-0.2-0.1-0.2l-4.7-6c-0.1-0.1-0.2-0.1-0.3-0.1
		l-4.8-0.7l4.8-0.7c0.1,0,0.2-0.1,0.3-0.1l4.7-6c0.1-0.1,0.1-0.2,0.1-0.2c0-0.1,0-0.1-0.1-0.2C255.8,264.2,255.7,264.1,255.5,264.2z
		"/>
        <path class="snow2" d="M454.3,335.2L454.3,335.2C454.3,335.2,454.3,335.2,454.3,335.2l-4.7-6c-0.1-0.1-0.2-0.1-0.3-0.1l-4.8-0.7
		l4.8-0.7c0,0,0,0,0,0c0.1,0,0.1-0.1,0.2-0.1c0,0,0,0,0,0c0,0,0,0,0,0l4.7-6c0.1-0.1,0.1-0.2,0.1-0.2c0-0.1,0-0.1-0.1-0.2
		c-0.1-0.1-0.2-0.2-0.4-0.2l-7.6,1.1c0,0,0,0,0,0c-0.1,0-0.2,0.1-0.2,0.1c0,0,0,0,0,0c0,0,0,0,0,0l-3,3.8l1.8-4.5c0,0,0-0.1,0-0.1
		s0-0.1,0-0.1l-2.8-7.1c-0.1-0.3-0.6-0.3-0.7,0l-2.8,7.1c0,0,0,0.1,0,0.1s0,0.1,0,0.1l1.8,4.5l-3-3.8c0,0,0,0,0,0c0,0,0,0,0,0
		c-0.1-0.1-0.1-0.1-0.2-0.1c0,0,0,0,0,0l0,0c0,0,0,0,0,0l-7.5-1.1c-0.2,0-0.3,0.1-0.4,0.2c0,0.1-0.1,0.1-0.1,0.2
		c0,0.1,0,0.2,0.1,0.2l4.7,6c0.1,0.1,0.2,0.1,0.3,0.1l4.8,0.7l-4.8,0.7c-0.1,0-0.2,0.1-0.3,0.1l-4.7,6c-0.1,0.1-0.1,0.2-0.1,0.2
		c0,0.1,0,0.1,0.1,0.2c0.1,0.1,0.2,0.2,0.4,0.2l7.6-1.1c0.1,0,0.2-0.1,0.3-0.1l3-3.8l-1.8,4.5c0,0,0,0.1,0,0.1s0,0.1,0,0.1l2.8,7.1
		c0.1,0.2,0.2,0.3,0.4,0.3s0.3-0.1,0.4-0.3l2.8-7.1c0,0,0-0.1,0-0.1s0-0.1,0-0.1l-1.8-4.5l3,3.8c0,0,0,0,0,0c0,0,0,0,0,0
		c0.1,0.1,0.1,0.1,0.2,0.1c0,0,0,0,0,0l0,0c0,0,0,0,0,0l7.5,1.1c0,0,0,0,0.1,0c0,0,0,0,0,0c0,0,0,0,0,0c0,0,0,0,0,0c0,0,0,0,0,0
		c0.1,0,0.2,0,0.2-0.1c0,0,0,0,0,0c0,0,0,0,0,0c0.1-0.1,0.1-0.1,0.1-0.2c0,0,0,0,0,0c0,0,0,0,0-0.1c0,0,0,0,0,0c0,0,0,0,0,0
		C454.4,335.3,454.4,335.3,454.3,335.2z"/>
        <path class="snow2" d="M165.9,384.3c0.1,0,0.1-0.1,0.2-0.1c0,0,0,0,0,0c0,0,0,0,0,0l4.7-6c0.1-0.1,0.1-0.2,0.1-0.2
		c0-0.1,0-0.1-0.1-0.2c-0.1-0.1-0.2-0.2-0.4-0.2l-7.6,1.1c-0.1,0-0.2,0.1-0.3,0.1l-3,3.8l1.8-4.5c0,0,0-0.1,0-0.1s0-0.1,0-0.1
		l-2.8-7.1c0,0,0,0,0,0c0,0,0,0,0,0c0-0.1-0.1-0.1-0.2-0.1c0,0,0,0,0,0c0,0-0.1,0-0.1,0c0,0,0,0-0.1,0c0,0-0.1,0-0.1,0c0,0,0,0,0,0
		c0,0,0,0,0,0c-0.1,0-0.1,0.1-0.2,0.1c0,0,0,0,0,0c0,0,0,0,0,0l-2.8,7.1c0,0,0,0.1,0,0.1s0,0.1,0,0.1l1.8,4.5l-3-3.8c0,0,0,0,0,0
		c0,0,0,0,0,0c-0.1-0.1-0.1-0.1-0.2-0.1c0,0,0,0,0,0l0,0c0,0,0,0,0,0l-7.5-1.1c0,0,0,0,0,0c0,0-0.1,0-0.1,0c0,0,0,0,0,0c0,0,0,0,0,0
		c0,0-0.1,0-0.1,0.1c0,0,0,0,0,0c0,0,0,0,0,0c0,0-0.1,0.1-0.1,0.1c0,0,0,0,0,0.1c0,0,0,0,0,0.1c0,0,0,0,0,0.1c0,0,0,0,0,0
		c0,0,0,0,0,0c0,0.1,0,0.2,0.1,0.2l4.7,6c0,0,0,0,0,0c0,0,0,0,0,0c0.1,0.1,0.1,0.1,0.2,0.1c0,0,0,0,0,0l4.8,0.7l-4.8,0.7
		c-0.1,0-0.2,0.1-0.3,0.1l-4.7,6c-0.1,0.1-0.1,0.2-0.1,0.2c0,0.1,0,0.1,0.1,0.2c0.1,0.1,0.2,0.2,0.3,0.2c0,0,0,0,0.1,0l7.6-1.1
		c0.1,0,0.2-0.1,0.3-0.1l3-3.8l-1.8,4.5c0,0,0,0.1,0,0.1s0,0.1,0,0.1l2.8,7.1c0,0,0,0,0,0c0,0,0,0.1,0.1,0.1c0,0,0.1,0.1,0.1,0.1
		c0,0,0,0,0,0c0,0,0.1,0,0.1,0s0.1,0,0.1,0c0,0,0,0,0,0c0,0,0.1,0,0.1-0.1c0,0,0.1-0.1,0.1-0.1c0,0,0,0,0,0l2.8-7.1c0,0,0-0.1,0-0.1
		s0-0.1,0-0.1l-1.8-4.5l3,3.8c0.1,0.1,0.2,0.1,0.3,0.1l7.6,1.1c0.2,0,0.3-0.1,0.4-0.2c0-0.1,0.1-0.1,0.1-0.2c0-0.1,0-0.2-0.1-0.2
		l-4.7-6c-0.1-0.1-0.2-0.1-0.3-0.1l-4.8-0.7L165.9,384.3C165.9,384.3,165.9,384.3,165.9,384.3z"/>
        <path class="snow2" d="M421,384.3c0.1,0,0.1-0.1,0.2-0.1c0,0,0,0,0,0c0,0,0,0,0,0l4.7-6c0.1-0.1,0.1-0.2,0.1-0.2c0-0.1,0-0.1-0.1-0.2
		c-0.1-0.1-0.2-0.2-0.4-0.2l-7.5,1.1c0,0,0,0,0,0l0,0c0,0,0,0,0,0c-0.1,0-0.2,0.1-0.2,0.1c0,0,0,0,0,0c0,0,0,0,0,0l-3,3.8l1.8-4.5
		c0,0,0-0.1,0-0.1s0-0.1,0-0.1l-2.8-7.1c0,0,0,0,0,0c0,0,0,0,0,0c0-0.1-0.1-0.1-0.2-0.1c0,0,0,0,0,0c0,0-0.1,0-0.1,0c0,0,0,0-0.1,0
		c0,0-0.1,0-0.1,0c0,0,0,0,0,0c0,0,0,0,0,0c-0.1,0-0.1,0.1-0.2,0.1c0,0,0,0,0,0c0,0,0,0,0,0l-2.8,7.1c0,0,0,0.1,0,0.1s0,0.1,0,0.1
		l1.8,4.5l-3-3.8c-0.1-0.1-0.2-0.1-0.3-0.1l-7.6-1.1c-0.2,0-0.3,0.1-0.4,0.2c0,0.1-0.1,0.1-0.1,0.2c0,0.1,0,0.2,0.1,0.2l4.7,6
		c0.1,0.1,0.2,0.1,0.3,0.1l4.8,0.7l-4.8,0.7c-0.1,0-0.2,0.1-0.3,0.1l-4.7,6c-0.1,0.1-0.1,0.2-0.1,0.2c0,0.1,0,0.1,0.1,0.2
		c0.1,0.1,0.2,0.2,0.3,0.2c0,0,0,0,0.1,0l7.6-1.1c0.1,0,0.2-0.1,0.3-0.1l3-3.8l-1.8,4.5c0,0,0,0.1,0,0.1s0,0.1,0,0.1l2.8,7.1
		c0,0,0,0,0,0c0,0,0,0.1,0.1,0.1c0,0,0.1,0.1,0.1,0.1c0,0,0,0,0,0c0,0,0.1,0,0.1,0s0.1,0,0.1,0c0,0,0,0,0,0c0,0,0.1,0,0.1-0.1
		c0,0,0.1-0.1,0.1-0.1c0,0,0,0,0,0l2.8-7.1c0,0,0-0.1,0-0.1s0-0.1,0-0.1l-1.8-4.5l3,3.8c0.1,0.1,0.2,0.1,0.3,0.1l7.6,1.1
		c0,0,0,0,0.1,0c0.1,0,0.3-0.1,0.3-0.2c0-0.1,0.1-0.1,0.1-0.2c0-0.1,0-0.2-0.1-0.2l-4.7-6c-0.1-0.1-0.2-0.1-0.3-0.1l-4.8-0.7
		L421,384.3C421,384.3,421,384.3,421,384.3z"/>
        <path class="snow2" d="M251.2,384.2l4.7-6c0.1-0.1,0.1-0.2,0.1-0.2c0-0.1,0-0.1-0.1-0.2c-0.1-0.1-0.2-0.2-0.4-0.2l-7.5,1.1
		c0,0,0,0,0,0l0,0c0,0,0,0,0,0c-0.1,0-0.2,0.1-0.2,0.1c0,0,0,0,0,0c0,0,0,0,0,0l-3,3.8l1.8-4.5c0,0,0-0.1,0-0.1s0-0.1,0-0.1
		l-2.8-7.1c-0.1-0.2-0.2-0.3-0.4-0.3s-0.3,0.1-0.4,0.3l-2.8,7.1c0,0,0,0.1,0,0.1s0,0.1,0,0.1l1.8,4.5l-3-3.8c0,0,0,0,0,0
		c0,0,0,0,0,0c-0.1-0.1-0.1-0.1-0.2-0.1c0,0,0,0,0,0l0,0c0,0,0,0,0,0l-7.5-1.1c0,0,0,0,0,0c0,0-0.1,0-0.1,0c0,0,0,0,0,0c0,0,0,0,0,0
		c0,0-0.1,0-0.1,0.1c0,0,0,0,0,0c0,0,0,0,0,0c0,0-0.1,0.1-0.1,0.1c0,0,0,0,0,0.1c0,0,0,0,0,0.1c0,0,0,0,0,0.1c0,0,0,0,0,0
		c0,0,0,0,0,0c0,0.1,0,0.2,0.1,0.2l4.7,6c0.1,0.1,0.2,0.1,0.3,0.1l4.8,0.7l-4.8,0.7c0,0,0,0,0,0l0,0c0,0,0,0,0,0
		c-0.1,0-0.2,0.1-0.2,0.1c0,0,0,0,0,0c0,0,0,0,0,0l-4.7,6c-0.1,0.1-0.1,0.2-0.1,0.2c0,0.1,0,0.1,0.1,0.2c0.1,0.1,0.2,0.2,0.4,0.2
		l7.6-1.1c0.1,0,0.2-0.1,0.3-0.1l3-3.8l-1.8,4.5c0,0,0,0.1,0,0.1s0,0.1,0,0.1l2.8,7.1c0,0,0,0,0,0c0,0,0,0.1,0.1,0.1
		c0,0,0.1,0.1,0.1,0.1c0,0,0,0,0,0c0,0,0.1,0,0.1,0s0.1,0,0.1,0c0,0,0,0,0,0c0,0,0.1,0,0.1-0.1c0,0,0.1-0.1,0.1-0.1c0,0,0,0,0,0
		l2.8-7.1c0,0,0-0.1,0-0.1s0-0.1,0-0.1l-1.8-4.5l3,3.8c0,0,0,0,0,0c0,0,0,0,0,0c0.1,0.1,0.1,0.1,0.2,0.1c0,0,0,0,0,0l0,0
		c0,0,0,0,0,0l7.5,1.1c0,0,0,0,0.1,0c0.1,0,0.2,0,0.2-0.1c0,0,0,0,0,0c0,0,0,0,0,0c0.1-0.1,0.1-0.1,0.1-0.2c0,0,0,0,0,0
		c0,0,0,0,0-0.1c0,0,0,0,0,0c0,0,0,0,0,0c0-0.1,0-0.2-0.1-0.2l-4.7-6c0,0,0,0,0,0c0,0,0,0,0,0c-0.1-0.1-0.1-0.1-0.2-0.1c0,0,0,0,0,0
		l0,0c0,0,0,0,0,0l-4.8-0.7l4.8-0.7C251,384.3,251.1,384.3,251.2,384.2z"/>
</g>
</svg>
