<?xml version="1.0" encoding="utf-8"?>
<!-- Generator: Adobe Illustrator 27.8.1, SVG Export Plug-In . SVG Version: 6.00 Build 0)  -->
<svg version="1.1" id="Layer_1" xmlns:shaper="http://www.shapertools.com/namespaces/shaper"
	 shaper:fusionaddin="version:1.7.0"
	 xmlns="http://www.w3.org/2000/svg" x="0px" y="0px" viewBox="0 0 600 600"
	 style="enable-background:new 0 0 600 600;" xml:space="preserve">
<style type="text/css">
	.snow3_1{fill:#DDDDDD;stroke:#DDDDDD;stroke-width:0.8035;stroke-linecap:round;stroke-linejoin:round;stroke-miterlimit:113.3858;}
	.snow3_2{fill:#DDDDDD;}
</style>
    <path class="snow3_1" d="M186.6,200.8l2.8,7.1l-2.3,5.8c0.1,0.1,0.2,0.1,0.4,0.2l3.8-4.9l7.6-1.1l-4.7,6l-6.2,0.9c0,0.1,0,0.3,0,0.4
	l6.2,0.9l4.7,6l-7.6-1.1l-3.8-4.9c-0.1,0.1-0.2,0.2-0.4,0.2l2.3,5.8l-2.8,7.1l-2.8-7.1l2.3-5.8c-0.1-0.1-0.2-0.1-0.4-0.2l-3.8,4.9
	l-7.6,1.1l4.7-6l6.2-0.9c0-0.1,0-0.3,0-0.4l-6.2-0.9l-4.7-6l7.6,1.1l3.8,4.9c0.1-0.1,0.2-0.2,0.4-0.2l-2.3-5.8L186.6,200.8z"/>
    <path class="snow3_2" d="M251.2,272.5c-0.1-0.1-0.2-0.1-0.3-0.1l-4.8-0.7l4.8-0.7c0.1,0,0.2-0.1,0.3-0.1l4.7-6c0.1-0.1,0.1-0.2,0.1-0.2
	c0-0.1,0-0.1-0.1-0.2c-0.1-0.1-0.2-0.2-0.4-0.2l-7.6,1.1c-0.1,0-0.2,0.1-0.3,0.1l-3,3.8l1.8-4.5c0,0,0-0.1,0-0.1c0,0,0,0,0,0
	c0,0,0,0,0,0s0,0,0,0c0,0,0,0,0,0c0,0,0-0.1,0-0.1l-2.8-7.1c0,0,0,0,0,0c0,0,0,0,0,0c0-0.1-0.1-0.1-0.2-0.1c0,0,0,0,0,0
	c0,0-0.1,0-0.1,0c0,0,0,0-0.1,0c0,0-0.1,0-0.1,0c0,0,0,0,0,0c0,0,0,0,0,0c-0.1,0-0.1,0.1-0.2,0.1c0,0,0,0,0,0c0,0,0,0,0,0l-2.8,7.1
	c0,0,0,0.1,0,0.1s0,0.1,0,0.1l1.8,4.5l-3-3.8c-0.1-0.1-0.2-0.1-0.3-0.1l-7.6-1.1c-0.2,0-0.3,0.1-0.4,0.2c0,0.1-0.1,0.1-0.1,0.2
	c0,0.1,0,0.2,0.1,0.2l4.7,6c0,0,0,0,0,0c0,0,0,0,0,0c0.1,0.1,0.1,0.1,0.2,0.1c0,0,0,0,0,0l4.8,0.7l-4.8,0.7c-0.1,0-0.2,0.1-0.3,0.1
	l-4.7,6c-0.1,0.1-0.1,0.2-0.1,0.2c0,0.1,0,0.1,0.1,0.2c0.1,0.1,0.2,0.2,0.3,0.2c0,0,0,0,0.1,0l7.6-1.1c0,0,0,0,0,0
	c0.1,0,0.1-0.1,0.2-0.1c0,0,0,0,0,0c0,0,0,0,0,0l3-3.8l-1.8,4.5c0,0,0,0.1,0,0.1c0,0,0,0,0,0c0,0,0,0,0,0s0,0,0,0c0,0,0,0,0,0
	c0,0,0,0.1,0,0.1l2.8,7.1c0,0,0,0,0,0c0,0,0,0.1,0.1,0.1c0,0,0.1,0.1,0.1,0.1c0,0,0,0,0,0c0,0,0.1,0,0.1,0s0.1,0,0.1,0c0,0,0,0,0,0
	c0,0,0.1,0,0.1-0.1c0,0,0.1-0.1,0.1-0.1c0,0,0,0,0,0l2.8-7.1c0,0,0-0.1,0-0.1s0-0.1,0-0.1l-1.8-4.5l3,3.8c0,0,0,0,0,0c0,0,0,0,0,0
	c0.1,0.1,0.1,0.1,0.2,0.1c0,0,0,0,0,0l7.6,1.1c0,0,0,0,0.1,0c0.1,0,0.3-0.1,0.3-0.2c0-0.1,0.1-0.1,0.1-0.2c0-0.1,0-0.2-0.1-0.2
	L251.2,272.5z"/>
    <path class="snow3_2" d="M166.1,270.8l4.7-6c0.1-0.1,0.1-0.2,0.1-0.2c0,0,0,0,0,0c0,0,0,0,0,0c0,0,0,0,0-0.1c0,0,0,0,0-0.1
	c0,0,0,0,0-0.1c0,0,0-0.1-0.1-0.1c0,0,0,0,0,0c0,0,0,0,0,0c0,0-0.1,0-0.1-0.1c0,0,0,0,0,0c0,0-0.1,0-0.1,0c0,0,0,0,0,0c0,0,0,0,0,0
	l-7.6,1.1c0,0,0,0,0,0c-0.1,0-0.2,0.1-0.2,0.1c0,0,0,0,0,0c0,0,0,0,0,0l-3,3.8l1.8-4.5c0,0,0-0.1,0-0.1c0,0,0,0,0,0c0,0,0,0,0,0
	s0,0,0,0c0,0,0,0,0,0c0,0,0-0.1,0-0.1l-2.8-7.1c-0.1-0.3-0.6-0.3-0.7,0l-2.8,7.1c0,0,0,0.1,0,0.1c0,0,0,0,0,0c0,0,0,0,0,0s0,0,0,0
	c0,0,0,0,0,0c0,0,0,0.1,0,0.1l1.8,4.5l-3-3.8c-0.1-0.1-0.2-0.1-0.3-0.1l-7.6-1.1c0,0,0,0,0,0c0,0,0,0,0,0c-0.1,0-0.2,0-0.2,0.1
	c0,0,0,0,0,0c0,0,0,0,0,0c0,0-0.1,0.1-0.1,0.1c0,0,0,0,0,0.1c0,0,0,0,0,0.1c0,0,0,0,0,0.1c0,0,0,0,0,0c0,0,0,0,0,0
	c0,0.1,0,0.2,0.1,0.2l4.7,6c0,0,0,0,0,0c0,0,0,0,0,0c0.1,0.1,0.1,0.1,0.2,0.1c0,0,0,0,0,0l4.8,0.7l-4.8,0.7c-0.1,0-0.2,0.1-0.3,0.1
	l-4.7,6c-0.1,0.1-0.1,0.2-0.1,0.2c0,0.1,0,0.1,0.1,0.2c0.1,0.1,0.2,0.2,0.4,0.2l7.6-1.1c0.1,0,0.2-0.1,0.3-0.1l3-3.8l-1.8,4.5
	c0,0,0,0.1,0,0.1c0,0,0,0,0,0c0,0,0,0,0,0s0,0,0,0c0,0,0,0,0,0c0,0,0,0.1,0,0.1l2.8,7.1c0,0,0,0,0,0c0,0,0,0.1,0.1,0.1
	c0,0,0.1,0.1,0.1,0.1c0,0,0,0,0,0c0,0,0.1,0,0.1,0s0.1,0,0.1,0c0,0,0,0,0,0c0,0,0.1,0,0.1-0.1c0,0,0.1-0.1,0.1-0.1c0,0,0,0,0,0
	l2.8-7.1c0,0,0-0.1,0-0.1c0,0,0,0,0,0c0,0,0,0,0,0s0,0,0,0c0,0,0,0,0,0c0,0,0-0.1,0-0.1l-1.8-4.5l3,3.8c0,0,0,0,0,0c0,0,0,0,0,0
	c0.1,0.1,0.1,0.1,0.2,0.1c0,0,0,0,0,0l7.6,1.1c0,0,0,0,0.1,0c0.1,0,0.2,0,0.2-0.1c0,0,0,0,0,0c0,0,0,0,0,0c0.1-0.1,0.1-0.1,0.1-0.2
	c0,0,0,0,0,0c0,0,0,0,0-0.1c0,0,0,0,0,0c0,0,0,0,0,0c0-0.1,0-0.2-0.1-0.2l-4.7-6c-0.1-0.1-0.2-0.1-0.3-0.1l-4.8-0.7l4.8-0.7
	C166,270.9,166.1,270.9,166.1,270.8z"/>
    <g>
	<path class="snow3_2" d="M284.2,335.2l-4.7-6c0,0,0,0,0,0c0,0,0,0,0,0c-0.1-0.1-0.1-0.1-0.2-0.1c0,0,0,0,0,0l0,0c0,0,0,0,0,0l-4.8-0.7
		l4.8-0.7c0,0,0,0,0,0c0.1,0,0.1-0.1,0.2-0.1c0,0,0,0,0,0c0,0,0,0,0,0l4.7-6c0.1-0.1,0.1-0.2,0.1-0.2c0-0.1,0-0.1-0.1-0.2
		c-0.1-0.1-0.2-0.2-0.4-0.2l-7.6,1.1c0,0,0,0,0,0c-0.1,0-0.2,0.1-0.2,0.1c0,0,0,0,0,0c0,0,0,0,0,0l-3,3.8l1.8-4.5c0,0,0-0.1,0-0.1
		s0-0.1,0-0.1L272,314c-0.1-0.3-0.6-0.3-0.7,0l-2.8,7.1c0,0,0,0.1,0,0.1s0,0.1,0,0.1l1.8,4.5l-3-3.8c0,0,0,0,0,0c0,0,0,0,0,0
		c-0.1-0.1-0.1-0.1-0.2-0.1c0,0,0,0,0,0l0,0c0,0,0,0,0,0l-7.5-1.1c0,0,0,0,0,0c0,0-0.1,0-0.1,0c-0.1,0-0.2,0-0.2,0.1c0,0,0,0,0,0
		c0,0,0,0,0,0c0,0-0.1,0.1-0.1,0.1c0,0,0,0,0,0.1c0,0,0,0,0,0.1c0,0,0,0,0,0.1c0,0,0,0,0,0c0,0,0,0,0,0c0,0.1,0,0.2,0.1,0.2l4.7,6
		c0,0,0,0,0,0c0,0,0,0,0,0c0.1,0.1,0.1,0.1,0.2,0.1c0,0,0,0,0,0l4.8,0.7l-4.8,0.7c0,0,0,0,0,0l0,0c0,0,0,0,0,0
		c-0.1,0-0.2,0.1-0.2,0.1c0,0,0,0,0,0c0,0,0,0,0,0l-4.7,6c-0.1,0.1-0.1,0.2-0.1,0.2c0,0.1,0,0.1,0.1,0.2c0.1,0.1,0.2,0.2,0.3,0.2
		c0,0,0,0,0.1,0l7.6-1.1c0.1,0,0.2-0.1,0.3-0.1l3-3.8l-1.8,4.5c0,0,0,0.1,0,0.1s0,0.1,0,0.1l2.8,7.1c0.1,0.2,0.2,0.3,0.4,0.3
		s0.3-0.1,0.4-0.3l2.8-7.1c0,0,0-0.1,0-0.1s0-0.1,0-0.1l-1.8-4.5l3,3.8c0,0,0,0,0,0c0,0,0,0,0,0c0.1,0.1,0.1,0.1,0.2,0.1
		c0,0,0,0,0,0l7.6,1.1c0,0,0,0,0.1,0c0.1,0,0.2,0,0.2-0.1c0,0,0,0,0,0c0,0,0,0,0,0c0.1-0.1,0.1-0.1,0.1-0.2c0,0,0,0,0,0
		c0,0,0,0,0-0.1c0,0,0,0,0,0c0,0,0,0,0,0C284.3,335.3,284.3,335.3,284.2,335.2z"/>
        <path class="snow3_2" d="M256,377.9C256,377.9,256,377.9,256,377.9c0-0.1,0-0.1,0-0.1c0,0,0-0.1-0.1-0.1c0,0,0,0,0,0c0,0,0,0,0,0
		c0,0-0.1,0-0.1,0c0,0,0,0-0.1,0c0,0,0,0-0.1,0c0,0-0.1,0-0.1,0c0,0,0,0,0,0l-7.5,1.1c0,0,0,0,0,0l0,0c0,0,0,0,0,0
		c-0.1,0-0.2,0.1-0.2,0.1c0,0,0,0,0,0c0,0,0,0,0,0l-3,3.8l1.8-4.5c0,0,0-0.1,0-0.1s0-0.1,0-0.1l-2.8-7.1c0,0,0,0,0,0c0,0,0,0,0,0
		c0-0.1-0.1-0.1-0.2-0.1c0,0,0,0,0,0c0,0-0.1,0-0.1,0c0,0,0,0-0.1,0c0,0-0.1,0-0.1,0c0,0,0,0,0,0c0,0,0,0,0,0
		c-0.1,0-0.1,0.1-0.2,0.1c0,0,0,0,0,0c0,0,0,0,0,0l-2.8,7.1c0,0,0,0.1,0,0.1s0,0.1,0,0.1l1.8,4.5l-3-3.8c-0.1-0.1-0.2-0.1-0.3-0.1
		l-7.6-1.1c-0.2,0-0.3,0.1-0.4,0.2c0,0.1-0.1,0.1-0.1,0.2c0,0.1,0,0.2,0.1,0.2l4.7,6c0,0,0,0,0,0c0,0,0,0,0,0
		c0.1,0.1,0.1,0.1,0.2,0.1c0,0,0,0,0,0l4.8,0.7l-4.8,0.7c-0.1,0-0.2,0.1-0.3,0.1l-4.7,6c-0.1,0.1-0.1,0.2-0.1,0.2c0,0,0,0,0,0
		c0,0,0,0,0,0c0,0,0,0,0,0.1c0,0,0,0,0,0c0,0.1,0.1,0.1,0.1,0.2c0,0,0,0,0,0c0,0,0,0,0,0c0.1,0.1,0.2,0.1,0.2,0.1c0,0,0,0,0.1,0
		l7.5-1.1c0,0,0,0,0,0l0,0c0,0,0,0,0,0c0.1,0,0.2-0.1,0.2-0.1c0,0,0,0,0,0c0,0,0,0,0,0l3-3.8l-1.8,4.5c0,0,0,0.1,0,0.1s0,0.1,0,0.1
		l2.8,7.1c0.1,0.2,0.2,0.3,0.4,0.3s0.3-0.1,0.4-0.3l2.8-7.1c0,0,0-0.1,0-0.1s0-0.1,0-0.1l-1.8-4.5l3,3.8c0.1,0.1,0.2,0.1,0.3,0.1
		l7.6,1.1c0.2,0,0.3-0.1,0.4-0.2c0-0.1,0.1-0.1,0.1-0.2c0-0.1,0-0.2-0.1-0.2l-4.7-6c-0.1-0.1-0.2-0.1-0.3-0.1l-4.8-0.7l4.8-0.7
		c0.1,0,0.2-0.1,0.3-0.1l4.7-6C256,378.1,256,378,256,377.9C256,378,256,378,256,377.9C256,378,256,378,256,377.9
		C256,377.9,256,377.9,256,377.9z"/>
        <path class="snow3_2" d="M165.9,384.3c0.1,0,0.1-0.1,0.2-0.1c0,0,0,0,0,0c0,0,0,0,0,0l4.7-6c0.1-0.1,0.1-0.2,0.1-0.2
		c0-0.1,0-0.1-0.1-0.2c-0.1-0.1-0.2-0.2-0.4-0.2l-7.6,1.1c-0.1,0-0.2,0.1-0.3,0.1l-3,3.8l1.8-4.5c0,0,0-0.1,0-0.1s0-0.1,0-0.1
		l-2.8-7.1c-0.1-0.3-0.6-0.3-0.7,0l-2.8,7.1c0,0,0,0.1,0,0.1s0,0.1,0,0.1l1.8,4.5l-3-3.8c-0.1-0.1-0.2-0.1-0.3-0.1l-7.6-1.1
		c0,0,0,0,0,0c0,0-0.1,0-0.1,0c0,0,0,0,0,0c0,0,0,0,0,0c0,0-0.1,0-0.1,0.1c0,0,0,0,0,0c0,0,0,0,0,0c0,0-0.1,0.1-0.1,0.1
		c0,0,0,0,0,0.1c0,0,0,0,0,0.1c0,0,0,0,0,0.1c0,0,0,0,0,0c0,0,0,0,0,0c0,0.1,0,0.2,0.1,0.2l4.7,6c0,0,0,0,0,0c0,0,0,0,0,0
		c0.1,0.1,0.1,0.1,0.2,0.1c0,0,0,0,0,0l4.8,0.7l-4.8,0.7c-0.1,0-0.2,0.1-0.3,0.1l-4.7,6c-0.1,0.1-0.1,0.2-0.1,0.2
		c0,0.1,0,0.1,0.1,0.2c0.1,0.1,0.2,0.2,0.3,0.2c0,0,0,0,0.1,0l7.5-1.1c0,0,0,0,0,0l0,0c0,0,0,0,0,0c0.1,0,0.2-0.1,0.2-0.1
		c0,0,0,0,0,0c0,0,0,0,0,0l3-3.8l-1.8,4.5c0,0,0,0.1,0,0.1s0,0.1,0,0.1l2.8,7.1c0,0,0,0,0,0c0,0,0,0.1,0.1,0.1c0,0,0.1,0.1,0.1,0.1
		c0,0,0,0,0,0c0,0,0.1,0,0.1,0s0.1,0,0.1,0c0,0,0,0,0,0c0,0,0.1,0,0.1-0.1c0,0,0.1-0.1,0.1-0.1c0,0,0,0,0,0l2.8-7.1c0,0,0-0.1,0-0.1
		s0-0.1,0-0.1l-1.8-4.5l3,3.8c0.1,0.1,0.2,0.1,0.3,0.1l7.6,1.1c0,0,0,0,0.1,0c0.1,0,0.3-0.1,0.3-0.2c0-0.1,0.1-0.1,0.1-0.2
		c0-0.1,0-0.2-0.1-0.2l-4.7-6c-0.1-0.1-0.2-0.1-0.3-0.1l-4.8-0.7L165.9,384.3C165.9,384.3,165.9,384.3,165.9,384.3z"/>
        <path class="snow3_2" d="M194.3,327.6c0.1,0,0.1-0.1,0.2-0.1c0,0,0,0,0,0c0,0,0,0,0,0l4.7-6c0.1-0.1,0.1-0.2,0.1-0.2
		c0-0.1,0-0.1-0.1-0.2c-0.1-0.1-0.2-0.2-0.4-0.2l-7.5,1.1c0,0,0,0,0,0l0,0c0,0,0,0,0,0c-0.1,0-0.2,0.1-0.2,0.1c0,0,0,0,0,0
		c0,0,0,0,0,0l-3,3.8l1.8-4.5c0,0,0-0.1,0-0.1s0-0.1,0-0.1L187,314c-0.1-0.2-0.2-0.3-0.4-0.3s-0.3,0.1-0.4,0.3l-2.8,7.1
		c0,0,0,0.1,0,0.1s0,0.1,0,0.1l1.8,4.5l-3-3.8c0,0,0,0,0,0c0,0,0,0,0,0c-0.1-0.1-0.1-0.1-0.2-0.1c0,0,0,0,0,0l0,0c0,0,0,0,0,0
		l-7.5-1.1c0,0,0,0,0,0c0,0-0.1,0-0.1,0c0,0,0,0,0,0c0,0-0.1,0-0.1,0c0,0,0,0-0.1,0c0,0,0,0,0,0c0,0,0,0,0,0c0,0-0.1,0.1-0.1,0.1
		c0,0,0,0,0,0.1c0,0,0,0,0,0.1c0,0,0,0,0,0.1c0,0,0,0,0,0c0,0,0,0,0,0c0,0.1,0,0.2,0.1,0.2l4.7,6c0,0,0,0,0,0c0,0,0,0,0,0
		c0.1,0.1,0.1,0.1,0.2,0.1c0,0,0,0,0,0l4.8,0.7L179,329c0,0,0,0,0,0c-0.1,0-0.2,0.1-0.2,0.1c0,0,0,0,0,0c0,0,0,0,0,0l-4.7,6
		c-0.1,0.1-0.1,0.2-0.1,0.2c0,0.1,0,0.1,0.1,0.2c0.1,0.1,0.2,0.2,0.3,0.2c0,0,0,0,0.1,0l7.6-1.1c0.1,0,0.2-0.1,0.3-0.1l3-3.8
		l-1.8,4.5c0,0,0,0.1,0,0.1s0,0.1,0,0.1l2.8,7.1c0,0,0,0,0,0c0,0,0,0.1,0.1,0.1c0,0,0.1,0.1,0.1,0.1c0,0,0,0,0,0c0,0,0.1,0,0.1,0
		s0.1,0,0.1,0c0,0,0,0,0,0c0,0,0.1,0,0.1-0.1c0,0,0.1-0.1,0.1-0.1c0,0,0,0,0,0l2.8-7.1c0,0,0-0.1,0-0.1s0-0.1,0-0.1l-1.8-4.5l3,3.8
		c0,0,0,0,0,0c0,0,0,0,0,0c0.1,0.1,0.1,0.1,0.2,0.1c0,0,0,0,0,0l7.6,1.1c0,0,0,0,0.1,0c0.1,0,0.3-0.1,0.3-0.2c0-0.1,0.1-0.1,0.1-0.2
		c0-0.1,0-0.2-0.1-0.2l-4.7-6c0,0,0,0,0,0c0,0,0,0,0,0c-0.1-0.1-0.1-0.1-0.2-0.1c0,0,0,0,0,0l0,0c0,0,0,0,0,0l-4.8-0.7L194.3,327.6
		C194.2,327.7,194.2,327.6,194.3,327.6z"/>
</g>
    <g>
	<path class="snow3_2" d="M369.4,321.2C369.4,321.2,369.3,321.2,369.4,321.2c0-0.1,0-0.1,0-0.1c0,0-0.1-0.1-0.1-0.1c0,0,0,0,0,0
		c0,0,0,0,0,0c0,0-0.1,0-0.1,0c0,0,0,0-0.1,0c0,0,0,0,0,0c0,0-0.1,0-0.1,0c0,0,0,0,0,0l-7.6,1.1c0,0,0,0,0,0c-0.1,0-0.2,0.1-0.2,0.1
		c0,0,0,0,0,0c0,0,0,0,0,0l-3,3.8l1.8-4.5c0,0,0-0.1,0-0.1s0-0.1,0-0.1l-2.8-7.1c0,0,0,0,0,0c0,0,0,0,0,0c0-0.1-0.1-0.1-0.2-0.1
		c0,0,0,0,0,0c0,0-0.1,0-0.1,0c0,0,0,0-0.1,0c0,0-0.1,0-0.1,0c0,0,0,0,0,0c0,0,0,0,0,0c-0.1,0-0.1,0.1-0.2,0.1c0,0,0,0,0,0
		c0,0,0,0,0,0l-2.8,7.1c0,0,0,0.1,0,0.1s0,0.1,0,0.1l1.8,4.5l-3-3.8c0,0,0,0,0,0c0,0,0,0,0,0c-0.1-0.1-0.1-0.1-0.2-0.1c0,0,0,0,0,0
		l0,0c0,0,0,0,0,0l-7.5-1.1c-0.2,0-0.3,0.1-0.4,0.2c0,0.1-0.1,0.1-0.1,0.2c0,0.1,0,0.2,0.1,0.2l4.7,6c0.1,0.1,0.2,0.1,0.3,0.1
		l4.8,0.7l-4.8,0.7c0,0,0,0,0,0c-0.1,0-0.2,0.1-0.2,0.1c0,0,0,0,0,0c0,0,0,0,0,0l-4.7,6c-0.1,0.1-0.1,0.2-0.1,0.2
		c0,0.1,0,0.1,0.1,0.2c0.1,0.1,0.2,0.2,0.3,0.2c0,0,0,0,0.1,0l7.6-1.1c0.1,0,0.2-0.1,0.3-0.1l3-3.8l-1.8,4.5c0,0,0,0.1,0,0.1
		s0,0.1,0,0.1l2.8,7.1c0,0,0,0,0,0c0,0,0,0.1,0.1,0.1c0,0,0.1,0.1,0.1,0.1c0,0,0,0,0,0c0,0,0.1,0,0.1,0s0.1,0,0.1,0c0,0,0,0,0,0
		c0,0,0.1,0,0.1-0.1c0,0,0.1-0.1,0.1-0.1c0,0,0,0,0,0l2.8-7.1c0,0,0-0.1,0-0.1s0-0.1,0-0.1l-1.8-4.5l3,3.8c0,0,0,0,0,0c0,0,0,0,0,0
		c0.1,0.1,0.1,0.1,0.2,0.1c0,0,0,0,0,0l7.6,1.1c0,0,0,0,0.1,0c0,0,0,0,0,0c0,0,0,0,0,0c0,0,0,0,0,0c0,0,0,0,0,0c0.1,0,0.2,0,0.2-0.1
		c0,0,0,0,0,0c0,0,0,0,0,0c0.1-0.1,0.1-0.1,0.1-0.2c0,0,0,0,0,0c0,0,0,0,0-0.1c0,0,0,0,0,0c0,0,0,0,0,0c0-0.1,0-0.2-0.1-0.2l0,0
		c0,0,0,0,0,0l-4.7-6c0,0,0,0,0,0c0,0,0,0,0,0c-0.1-0.1-0.1-0.1-0.2-0.1c0,0,0,0,0,0l0,0c0,0,0,0,0,0l-4.8-0.7l4.8-0.7c0,0,0,0,0,0
		c0.1,0,0.1-0.1,0.2-0.1c0,0,0,0,0,0c0,0,0,0,0,0l4.7-6c0,0,0,0,0,0l0,0C369.3,321.4,369.4,321.3,369.4,321.2
		C369.4,321.3,369.4,321.3,369.4,321.2C369.4,321.3,369.4,321.3,369.4,321.2C369.4,321.2,369.4,321.2,369.4,321.2z"/>
        <path class="snow3_2" d="M426.1,264.5C426.1,264.5,426,264.5,426.1,264.5c0-0.1,0-0.1,0-0.1c0,0,0-0.1-0.1-0.1c0,0,0,0,0,0c0,0,0,0,0,0
		c0,0-0.1,0-0.1-0.1c0,0,0,0,0,0c0,0-0.1,0-0.1,0c0,0,0,0-0.1,0c0,0,0,0,0,0l-7.6,1.1c-0.1,0-0.2,0.1-0.3,0.1l-3,3.8l1.8-4.5
		c0,0,0-0.1,0-0.1s0-0.1,0-0.1l-2.8-7.1c0,0,0,0,0,0c0,0,0,0,0,0c0-0.1-0.1-0.1-0.2-0.1c0,0,0,0,0,0c0,0-0.1,0-0.1,0c0,0,0,0-0.1,0
		c0,0-0.1,0-0.1,0c0,0,0,0,0,0c0,0,0,0,0,0c-0.1,0-0.1,0.1-0.2,0.1c0,0,0,0,0,0c0,0,0,0,0,0l-2.8,7.1c0,0,0,0.1,0,0.1c0,0,0,0,0,0
		c0,0,0,0,0,0s0,0,0,0c0,0,0,0,0,0c0,0,0,0.1,0,0.1l1.8,4.5l-3-3.8c0,0,0,0,0,0c0,0,0,0,0,0c-0.1-0.1-0.1-0.1-0.2-0.1c0,0,0,0,0,0
		l-7.6-1.1c0,0,0,0,0,0c0,0,0,0-0.1,0c0,0-0.1,0-0.1,0c0,0,0,0-0.1,0c0,0,0,0-0.1,0c0,0,0,0,0,0c0,0,0,0,0,0c0,0-0.1,0.1-0.1,0.1
		c0,0,0,0,0,0.1c0,0,0,0,0,0.1c0,0,0,0,0,0.1c0,0,0,0,0,0c0,0,0,0,0,0c0,0.1,0,0.2,0.1,0.2l4.7,6c0.1,0.1,0.2,0.1,0.3,0.1l4.8,0.7
		l-4.8,0.7c-0.1,0-0.2,0.1-0.3,0.1l-4.7,6c-0.1,0.1-0.1,0.2-0.1,0.2c0,0.1,0,0.1,0.1,0.2c0.1,0.1,0.2,0.2,0.3,0.2c0,0,0,0,0.1,0
		l7.6-1.1c0,0,0,0,0,0c0.1,0,0.1-0.1,0.2-0.1c0,0,0,0,0,0c0,0,0,0,0,0l3-3.8l-1.8,4.5c0,0,0,0.1,0,0.1s0,0.1,0,0.1l2.8,7.1
		c0,0,0,0,0,0c0,0,0,0.1,0.1,0.1c0,0,0.1,0.1,0.1,0.1c0,0,0,0,0,0c0,0,0.1,0,0.1,0s0.1,0,0.1,0c0,0,0,0,0,0c0,0,0.1,0,0.1-0.1
		c0,0,0.1-0.1,0.1-0.1c0,0,0,0,0,0l2.8-7.1c0,0,0-0.1,0-0.1s0-0.1,0-0.1l-1.8-4.5l3,3.8c0.1,0.1,0.2,0.1,0.3,0.1l7.6,1.1
		c0,0,0,0,0.1,0c0,0,0,0,0,0c0,0,0,0,0,0c0,0,0,0,0,0c0,0,0,0,0,0c0.1,0,0.2,0,0.2-0.1c0,0,0,0,0,0c0,0,0,0,0,0
		c0.1-0.1,0.1-0.1,0.1-0.2c0,0,0,0,0,0c0,0,0,0,0-0.1c0,0,0,0,0,0c0,0,0,0,0,0c0-0.1,0-0.2-0.1-0.2l-4.7-6c0,0,0,0,0,0c0,0,0,0,0,0
		c-0.1-0.1-0.1-0.1-0.2-0.1c0,0,0,0,0,0l-4.8-0.7l4.8-0.7c0.1,0,0.2-0.1,0.3-0.1l4.7-6C426,264.7,426.1,264.7,426.1,264.5
		C426.1,264.6,426.1,264.6,426.1,264.5C426.1,264.6,426.1,264.6,426.1,264.5C426.1,264.5,426.1,264.5,426.1,264.5z"/>
        <path class="snow3_2" d="M369.4,207.8C369.4,207.8,369.3,207.8,369.4,207.8c0-0.1,0-0.1,0-0.1c0,0,0-0.1-0.1-0.1c0,0,0,0,0,0
		c0,0,0,0,0,0c0,0-0.1,0-0.1,0c0,0,0,0-0.1,0c0,0,0,0-0.1,0c0,0-0.1,0-0.1,0c0,0,0,0,0,0l-7.6,1.1c-0.1,0-0.2,0.1-0.3,0.1l-3,3.8
		l1.8-4.5c0,0,0-0.1,0-0.1c0,0,0,0,0,0c0,0,0,0,0,0s0,0,0,0c0,0,0,0,0,0c0,0,0-0.1,0-0.1l-2.8-7.1c0,0,0,0,0,0c0,0,0,0,0,0
		c0-0.1-0.1-0.1-0.2-0.1c0,0,0,0,0,0c0,0,0,0-0.1,0c0,0,0,0-0.1,0c0,0-0.1,0-0.1,0c0,0,0,0,0,0c0,0,0,0,0,0c-0.1,0-0.1,0.1-0.2,0.1
		c0,0,0,0,0,0c0,0,0,0,0,0l-2.8,7.1c0,0,0,0.1,0,0.1s0,0.1,0,0.1l1.8,4.5l-3-3.8c-0.1-0.1-0.2-0.1-0.3-0.1l-7.6-1.1
		c-0.2,0-0.3,0.1-0.4,0.2c0,0.1-0.1,0.1-0.1,0.2c0,0.1,0,0.2,0.1,0.2l4.7,6c0,0,0,0,0,0c0,0,0,0,0,0c0.1,0.1,0.1,0.1,0.2,0.1
		c0,0,0,0,0,0l4.8,0.7l-4.8,0.7c0,0,0,0,0,0c-0.1,0-0.2,0.1-0.2,0.1c0,0,0,0,0,0c0,0,0,0,0,0l-4.7,6c-0.1,0.1-0.1,0.2-0.1,0.2
		c0,0.1,0,0.1,0.1,0.2c0.1,0.1,0.2,0.2,0.3,0.2c0,0,0,0,0.1,0l7.6-1.1c0,0,0,0,0,0c0.1,0,0.1-0.1,0.2-0.1c0,0,0,0,0,0c0,0,0,0,0,0
		l3-3.8l-1.8,4.5c0,0,0,0.1,0,0.1c0,0,0,0,0,0c0,0,0,0,0,0s0,0,0,0c0,0,0,0,0,0c0,0,0,0.1,0,0.1l2.8,7.1c0.1,0.2,0.2,0.3,0.4,0.3
		s0.3-0.1,0.4-0.3l2.8-7.1c0,0,0-0.1,0-0.1c0,0,0,0,0,0c0,0,0,0,0,0s0,0,0,0c0,0,0,0,0,0c0,0,0-0.1,0-0.1l-1.8-4.5l3,3.8
		c0,0,0,0,0,0c0,0,0,0,0,0c0.1,0.1,0.1,0.1,0.2,0.1c0,0,0,0,0,0l7.6,1.1c0,0,0,0,0.1,0c0.1,0,0.3-0.1,0.3-0.2c0-0.1,0.1-0.1,0.1-0.2
		c0-0.1,0-0.2-0.1-0.2l-4.7-6c-0.1-0.1-0.2-0.1-0.3-0.1l-4.8-0.7l4.8-0.7c0,0,0,0,0,0c0.1,0,0.1-0.1,0.2-0.1c0,0,0,0,0,0
		c0,0,0,0,0,0l4.7-6C369.3,208,369.4,208,369.4,207.8C369.4,207.9,369.4,207.9,369.4,207.8C369.4,207.9,369.4,207.9,369.4,207.8
		C369.4,207.9,369.4,207.8,369.4,207.8z"/>
        <path class="snow3_2" d="M426.1,377.9C426.1,377.9,426,377.9,426.1,377.9c0-0.1,0-0.1,0-0.1c0,0,0-0.1-0.1-0.1c0,0,0,0,0,0c0,0,0,0,0,0
		c0,0,0,0-0.1,0c0,0,0,0-0.1,0c0,0,0,0,0,0c0,0-0.1,0-0.1,0c0,0,0,0,0,0l-7.6,1.1c-0.1,0-0.2,0.1-0.3,0.1l-3,3.8l1.8-4.5
		c0,0,0-0.1,0-0.1s0-0.1,0-0.1l-2.8-7.1c0,0,0,0,0,0c0,0,0,0,0,0c0-0.1-0.1-0.1-0.2-0.1c0,0,0,0,0,0c0,0-0.1,0-0.1,0c0,0,0,0-0.1,0
		c0,0-0.1,0-0.1,0c0,0,0,0,0,0c0,0,0,0,0,0c-0.1,0-0.1,0.1-0.2,0.1c0,0,0,0,0,0c0,0,0,0,0,0l-2.8,7.1c0,0,0,0.1,0,0.1s0,0.1,0,0.1
		l1.8,4.5l-3-3.8c-0.1-0.1-0.2-0.1-0.3-0.1l-7.6-1.1c-0.2,0-0.3,0.1-0.4,0.2c0,0.1-0.1,0.1-0.1,0.2c0,0.1,0,0.2,0.1,0.2l4.7,6
		c0,0,0,0,0,0c0,0,0,0,0,0c0.1,0.1,0.1,0.1,0.2,0.1c0,0,0,0,0,0l4.8,0.7l-4.8,0.7c-0.1,0-0.2,0.1-0.3,0.1l-4.7,6
		c-0.1,0.1-0.1,0.2-0.1,0.2c0,0.1,0,0.1,0.1,0.2c0.1,0.1,0.2,0.2,0.4,0.2l7.6-1.1c0.1,0,0.2-0.1,0.3-0.1l3-3.8l-1.8,4.5
		c0,0,0,0.1,0,0.1s0,0.1,0,0.1l2.8,7.1c0,0,0,0,0,0c0,0,0,0.1,0.1,0.1c0,0,0.1,0.1,0.1,0.1c0,0,0,0,0,0c0,0,0.1,0,0.1,0s0.1,0,0.1,0
		c0,0,0,0,0,0c0,0,0.1,0,0.1-0.1c0,0,0.1-0.1,0.1-0.1c0,0,0,0,0,0l2.8-7.1c0,0,0-0.1,0-0.1s0-0.1,0-0.1l-1.8-4.5l3,3.8
		c0.1,0.1,0.2,0.1,0.3,0.1l7.6,1.1c0,0,0,0,0.1,0c0,0,0,0,0,0c0,0,0,0,0,0c0,0,0,0,0,0c0,0,0,0,0,0c0.1,0,0.2,0,0.2-0.1c0,0,0,0,0,0
		c0,0,0,0,0,0c0.1-0.1,0.1-0.1,0.1-0.2c0,0,0,0,0,0c0,0,0,0,0-0.1c0,0,0,0,0,0c0,0,0,0,0,0c0-0.1,0-0.2-0.1-0.2l0,0c0,0,0,0,0,0
		l-4.7-6c-0.1-0.1-0.2-0.1-0.3-0.1l-4.8-0.7l4.8-0.7c0.1,0,0.2-0.1,0.3-0.1l4.7-6c0,0,0,0,0,0l0,0C426,378.1,426.1,378,426.1,377.9
		C426.1,378,426.1,378,426.1,377.9C426.1,378,426.1,378,426.1,377.9C426.1,377.9,426.1,377.9,426.1,377.9z"/>
        <path class="snow3_2" d="M449.6,327.5l4.7-6c0.1-0.1,0.1-0.2,0.1-0.2c0-0.1,0-0.1-0.1-0.2c-0.1-0.1-0.2-0.2-0.4-0.2l-7.6,1.1
		c-0.1,0-0.2,0.1-0.3,0.1l-3,3.8l1.8-4.5c0,0,0-0.1,0-0.1s0-0.1,0-0.1l-2.8-7.1c0,0,0,0,0,0c0,0,0,0,0,0c0-0.1-0.1-0.1-0.2-0.1
		c0,0,0,0,0,0c0,0-0.1,0-0.1,0c0,0,0,0-0.1,0c0,0-0.1,0-0.1,0c0,0,0,0,0,0c0,0,0,0,0,0c-0.1,0-0.1,0.1-0.2,0.1c0,0,0,0,0,0
		c0,0,0,0,0,0l-2.8,7.1c0,0,0,0.1,0,0.1s0,0.1,0,0.1l1.8,4.5l-3-3.8c-0.1-0.1-0.2-0.1-0.3-0.1l-7.6-1.1c0,0,0,0,0,0c0,0-0.1,0-0.1,0
		c0,0,0,0,0,0c0,0,0,0-0.1,0c0,0-0.1,0-0.1,0c0,0,0,0,0,0c0,0,0,0,0,0c0,0-0.1,0.1-0.1,0.1c0,0,0,0,0,0.1c0,0,0,0,0,0.1
		c0,0,0,0,0,0.1c0,0,0,0,0,0c0,0,0,0,0,0c0,0.1,0,0.2,0.1,0.2l0,0c0,0,0,0,0,0l4.7,6c0,0,0,0,0,0c0,0,0,0,0,0
		c0.1,0.1,0.1,0.1,0.2,0.1c0,0,0,0,0,0l4.8,0.7l-4.8,0.7c0,0,0,0,0,0c-0.1,0-0.2,0.1-0.2,0.1c0,0,0,0,0,0c0,0,0,0,0,0l-4.7,6
		c0,0,0,0,0,0l0,0c-0.1,0.1-0.1,0.2-0.1,0.2c0,0,0,0,0,0c0,0,0,0,0,0c0,0,0,0,0,0.1c0,0,0,0,0,0c0,0.1,0.1,0.1,0.1,0.2c0,0,0,0,0,0
		c0,0,0,0,0,0c0.1,0.1,0.2,0.1,0.2,0.1c0,0,0,0,0,0c0,0,0,0,0,0c0,0,0,0,0,0c0,0,0,0,0,0c0,0,0,0,0.1,0l7.6-1.1c0,0,0,0,0,0
		c0.1,0,0.1-0.1,0.2-0.1c0,0,0,0,0,0c0,0,0,0,0,0l3-3.8l-1.8,4.5c0,0,0,0.1,0,0.1s0,0.1,0,0.1l2.8,7.1c0,0,0,0,0,0
		c0,0,0,0.1,0.1,0.1c0,0,0.1,0.1,0.1,0.1c0,0,0,0,0,0c0,0,0.1,0,0.1,0s0.1,0,0.1,0c0,0,0,0,0,0c0,0,0.1,0,0.1-0.1
		c0,0,0.1-0.1,0.1-0.1c0,0,0,0,0,0l2.8-7.1c0,0,0-0.1,0-0.1s0-0.1,0-0.1l-1.8-4.5l3,3.8c0,0,0,0,0,0c0,0,0,0,0,0
		c0.1,0.1,0.1,0.1,0.2,0.1c0,0,0,0,0,0l7.6,1.1c0,0,0,0,0.1,0c0,0,0,0,0,0c0,0,0,0,0,0c0,0,0,0,0,0c0,0,0,0,0,0c0.1,0,0.2,0,0.2-0.1
		c0,0,0,0,0,0c0,0,0,0,0,0c0.1-0.1,0.1-0.1,0.1-0.2c0,0,0,0,0,0c0,0,0,0,0-0.1c0,0,0,0,0,0c0,0,0,0,0,0c0-0.1,0-0.2-0.1-0.2l0,0
		c0,0,0,0,0,0l-4.7-6c0,0,0,0,0,0c0,0,0,0,0,0c-0.1-0.1-0.1-0.1-0.2-0.1c0,0,0,0,0,0l0,0c0,0,0,0,0,0l-4.8-0.7l4.8-0.7
		C449.4,327.6,449.5,327.6,449.6,327.5z"/>
        <path class="snow3_2" d="M341,377.9C341,377.9,341,377.9,341,377.9c0-0.1,0-0.1,0-0.1c0,0-0.1-0.1-0.1-0.1c0,0,0,0,0,0c0,0,0,0,0,0
		c0,0-0.1,0-0.1,0c0,0,0,0-0.1,0c0,0,0,0,0,0c0,0-0.1,0-0.1,0c0,0,0,0,0,0l-7.6,1.1c-0.1,0-0.2,0.1-0.3,0.1l-3,3.8l1.8-4.5
		c0,0,0-0.1,0-0.1s0-0.1,0-0.1l-2.8-7.1c-0.1-0.2-0.2-0.3-0.4-0.3s-0.3,0.1-0.4,0.3l-2.8,7.1c0,0,0,0.1,0,0.1s0,0.1,0,0.1l1.8,4.5
		l-3-3.8c-0.1-0.1-0.2-0.1-0.3-0.1l-7.6-1.1c-0.2,0-0.3,0.1-0.4,0.2c0,0.1-0.1,0.1-0.1,0.2c0,0.1,0,0.2,0.1,0.2l4.7,6
		c0.1,0.1,0.2,0.1,0.3,0.1l4.8,0.7l-4.8,0.7c-0.1,0-0.2,0.1-0.3,0.1l-4.7,6c-0.1,0.1-0.1,0.2-0.1,0.2c0,0.1,0,0.1,0.1,0.2
		c0.1,0.1,0.2,0.2,0.4,0.2l7.6-1.1c0.1,0,0.2-0.1,0.3-0.1l3-3.8l-1.8,4.5c0,0,0,0.1,0,0.1s0,0.1,0,0.1l2.8,7.1
		c0.1,0.2,0.2,0.3,0.4,0.3s0.3-0.1,0.4-0.3l2.8-7.1c0,0,0-0.1,0-0.1s0-0.1,0-0.1l-1.8-4.5l3,3.8c0.1,0.1,0.2,0.1,0.3,0.1l7.6,1.1
		c0,0,0,0,0.1,0c0.1,0,0.3-0.1,0.3-0.2c0-0.1,0.1-0.1,0.1-0.2c0-0.1,0-0.2-0.1-0.2l-4.7-6c-0.1-0.1-0.2-0.1-0.3-0.1l-4.8-0.7
		l4.8-0.7c0,0,0,0,0,0c0.1,0,0.1-0.1,0.2-0.1c0,0,0,0,0,0c0,0,0,0,0,0l4.7-6c0,0,0,0,0,0l0,0C341,378.1,341,378,341,377.9
		C341,378,341,378,341,377.9C341,378,341,378,341,377.9C341,377.9,341,377.9,341,377.9z"/>
        <path class="snow3_2" d="M336.2,270.8l4.7-6c0.1-0.1,0.1-0.2,0.1-0.2c0-0.1,0-0.1-0.1-0.2c-0.1-0.1-0.2-0.2-0.4-0.2l-7.6,1.1
		c-0.1,0-0.2,0.1-0.3,0.1l-3,3.8l1.8-4.5c0,0,0-0.1,0-0.1c0,0,0,0,0,0c0,0,0,0,0,0s0,0,0,0c0,0,0,0,0,0c0,0,0-0.1,0-0.1l-2.8-7.1
		c0,0,0,0,0,0c0,0,0,0,0,0c0-0.1-0.1-0.1-0.2-0.1c0,0,0,0,0,0c0,0-0.1,0-0.1,0c0,0,0,0-0.1,0c0,0-0.1,0-0.1,0c0,0,0,0,0,0
		c0,0,0,0,0,0c-0.1,0-0.1,0.1-0.2,0.1c0,0,0,0,0,0c0,0,0,0,0,0l-2.8,7.1c0,0,0,0.1,0,0.1s0,0.1,0,0.1l1.8,4.5l-3-3.8
		c-0.1-0.1-0.2-0.1-0.3-0.1l-7.6-1.1c-0.2,0-0.3,0.1-0.4,0.2c0,0.1-0.1,0.1-0.1,0.2c0,0.1,0,0.2,0.1,0.2l4.7,6
		c0.1,0.1,0.2,0.1,0.3,0.1l4.8,0.7l-4.8,0.7c-0.1,0-0.2,0.1-0.3,0.1l-4.7,6c-0.1,0.1-0.1,0.2-0.1,0.2c0,0.1,0,0.1,0.1,0.2
		c0.1,0.1,0.2,0.2,0.3,0.2c0,0,0,0,0.1,0l7.6-1.1c0.1,0,0.2-0.1,0.3-0.1l3-3.8l-1.8,4.5c0,0,0,0.1,0,0.1s0,0.1,0,0.1l2.8,7.1
		c0,0,0,0,0,0c0,0,0,0.1,0.1,0.1c0,0,0.1,0.1,0.1,0.1c0,0,0,0,0,0c0,0,0.1,0,0.1,0s0.1,0,0.1,0c0,0,0,0,0,0c0,0,0.1,0,0.1-0.1
		c0,0,0.1-0.1,0.1-0.1c0,0,0,0,0,0l2.8-7.1c0,0,0-0.1,0-0.1c0,0,0,0,0,0c0,0,0,0,0,0s0,0,0,0c0,0,0,0,0,0c0,0,0-0.1,0-0.1l-1.8-4.5
		l3,3.8c0,0,0,0,0,0c0,0,0,0,0,0c0.1,0.1,0.1,0.1,0.2,0.1c0,0,0,0,0,0l7.6,1.1c0,0,0,0,0.1,0c0.1,0,0.3-0.1,0.3-0.2
		c0-0.1,0.1-0.1,0.1-0.2c0-0.1,0-0.2-0.1-0.2l-4.7-6c0,0,0,0,0,0c0,0,0,0,0,0c-0.1-0.1-0.1-0.1-0.2-0.1c0,0,0,0,0,0l-4.8-0.7
		l4.8-0.7C336.1,270.9,336.2,270.9,336.2,270.8z"/>
        <path class="snow3_2" d="M454.3,221.8l-4.7-6c0,0,0,0,0,0c0,0,0,0,0,0c-0.1-0.1-0.1-0.1-0.2-0.1c0,0,0,0,0,0l-4.8-0.7l4.8-0.7
		c0,0,0,0,0,0c0.1,0,0.1-0.1,0.2-0.1c0,0,0,0,0,0c0,0,0,0,0,0l4.7-6c0.1-0.1,0.1-0.2,0.1-0.2c0-0.1,0-0.1-0.1-0.2
		c-0.1-0.1-0.2-0.2-0.4-0.2l-7.6,1.1c-0.1,0-0.2,0.1-0.3,0.1l-3,3.8l1.8-4.5c0,0,0-0.1,0-0.1c0,0,0,0,0,0c0,0,0,0,0,0s0,0,0,0
		c0,0,0,0,0,0c0,0,0-0.1,0-0.1l-2.8-7.1c0,0,0,0,0,0c0,0,0,0,0,0c0-0.1-0.1-0.1-0.2-0.1c0,0,0,0,0,0c0,0-0.1,0-0.1,0c0,0,0,0-0.1,0
		c0,0-0.1,0-0.1,0c0,0,0,0,0,0c0,0,0,0,0,0c-0.1,0-0.1,0.1-0.2,0.1c0,0,0,0,0,0c0,0,0,0,0,0l-2.8,7.1c0,0,0,0.1,0,0.1s0,0.1,0,0.1
		l1.8,4.5l-3-3.8c0,0,0,0,0,0c0,0,0,0,0,0c-0.1-0.1-0.1-0.1-0.2-0.1c0,0,0,0,0,0l-7.6-1.1c-0.2,0-0.3,0.1-0.4,0.2
		c0,0.1-0.1,0.1-0.1,0.2c0,0.1,0,0.2,0.1,0.2l4.7,6c0,0,0,0,0,0c0,0,0,0,0,0c0.1,0.1,0.1,0.1,0.2,0.1c0,0,0,0,0,0l4.8,0.7l-4.8,0.7
		c0,0,0,0,0,0c-0.1,0-0.2,0.1-0.2,0.1c0,0,0,0,0,0c0,0,0,0,0,0l-4.7,6c-0.1,0.1-0.1,0.2-0.1,0.2c0,0.1,0,0.1,0.1,0.2
		c0.1,0.1,0.2,0.2,0.3,0.2c0,0,0,0,0.1,0l7.6-1.1c0,0,0,0,0,0c0.1,0,0.1-0.1,0.2-0.1c0,0,0,0,0,0c0,0,0,0,0,0l3-3.8l-1.8,4.5
		c0,0,0,0.1,0,0.1c0,0,0,0,0,0c0,0,0,0,0,0s0,0,0,0c0,0,0,0,0,0c0,0,0,0.1,0,0.1l2.8,7.1c0.1,0.2,0.2,0.3,0.4,0.3s0.3-0.1,0.4-0.3
		l2.8-7.1c0,0,0-0.1,0-0.1c0,0,0,0,0,0c0,0,0,0,0,0s0,0,0,0c0,0,0,0,0,0c0,0,0-0.1,0-0.1l-1.8-4.5l3,3.8c0.1,0.1,0.2,0.1,0.3,0.1
		l7.6,1.1c0,0,0,0,0,0c0,0,0,0,0,0c0,0,0,0,0,0c0.1,0,0.2,0,0.2-0.1c0,0,0,0,0,0c0,0,0,0,0,0c0,0,0.1-0.1,0.1-0.1c0,0,0,0,0-0.1
		c0,0,0,0,0-0.1c0,0,0,0,0-0.1c0,0,0,0,0,0c0,0,0,0,0,0C454.4,222,454.4,221.9,454.3,221.8z"/>
</g>
    <path class="snow3_2" d="M279.5,215.8C279.5,215.8,279.5,215.8,279.5,215.8C279.5,215.8,279.5,215.8,279.5,215.8
	c-0.1-0.1-0.2-0.1-0.3-0.1c0,0,0,0,0,0l-4.8-0.7l4.8-0.7c0,0,0,0,0,0c0.1,0,0.1-0.1,0.2-0.1c0,0,0,0,0,0c0,0,0,0,0,0l4.7-6
	c0.1-0.1,0.1-0.2,0.1-0.2c0-0.1,0-0.1-0.1-0.2c-0.1-0.1-0.2-0.2-0.4-0.2l-7.6,1.1c-0.1,0-0.2,0.1-0.3,0.1l-3,3.8l1.8-4.5
	c0,0,0-0.1,0-0.1c0,0,0,0,0,0c0,0,0,0,0,0s0,0,0,0c0,0,0,0,0,0c0,0,0-0.1,0-0.1l-2.8-7.1c-0.1-0.3-0.6-0.3-0.7,0l-2.8,7.1
	c0,0,0,0.1,0,0.1c0,0,0,0,0,0c0,0,0,0,0,0s0,0,0,0c0,0,0,0,0,0c0,0,0,0.1,0,0.1l1.8,4.5l-3-3.8c0,0,0,0,0,0c0,0,0,0,0,0
	c-0.1-0.1-0.1-0.1-0.2-0.1c0,0,0,0,0,0l-7.6-1.1c0,0,0,0,0,0c0,0,0,0-0.1,0c-0.1,0-0.2,0-0.2,0.1c0,0,0,0,0,0c0,0,0,0,0,0
	c0,0-0.1,0.1-0.1,0.1c0,0,0,0,0,0.1c0,0,0,0,0,0.1c0,0,0,0,0,0.1c0,0,0,0,0,0c0,0,0,0,0,0c0,0.1,0,0.2,0.1,0.2l4.7,6c0,0,0,0,0,0
	c0,0,0,0,0,0c0.1,0.1,0.1,0.1,0.2,0.1c0,0,0,0,0,0l4.8,0.7l-4.8,0.7c0,0,0,0,0,0c-0.1,0-0.2,0.1-0.2,0.1c0,0,0,0,0,0c0,0,0,0,0,0
	l-4.7,6c-0.1,0.1-0.1,0.2-0.1,0.2c0,0,0,0,0,0c0,0,0,0,0,0c0,0,0,0,0,0.1c0,0,0,0,0,0c0,0.1,0.1,0.1,0.1,0.2c0,0,0,0,0,0
	c0,0,0,0,0,0c0.1,0.1,0.2,0.1,0.2,0.1c0,0,0,0,0.1,0l7.5-1.1c0,0,0,0,0,0l0,0c0,0,0,0,0,0c0.1,0,0.2-0.1,0.2-0.1c0,0,0,0,0,0
	c0,0,0,0,0,0l3-3.8l-1.8,4.5c0,0,0,0.1,0,0.1c0,0,0,0,0,0c0,0,0,0,0,0s0,0,0,0c0,0,0,0,0,0c0,0,0,0.1,0,0.1l2.8,7.1
	c0.1,0.2,0.2,0.3,0.4,0.3s0.3-0.1,0.4-0.3l2.8-7.1c0,0,0-0.1,0-0.1c0,0,0,0,0,0c0,0,0,0,0,0s0,0,0,0c0,0,0,0,0,0c0,0,0-0.1,0-0.1
	l-1.8-4.5l3,3.8c0,0,0,0,0,0c0,0,0,0,0,0c0.1,0.1,0.1,0.1,0.2,0.1c0,0,0,0,0,0l7.6,1.1c0,0,0,0,0.1,0c0.1,0,0.3-0.1,0.3-0.2
	c0-0.1,0.1-0.1,0.1-0.2c0-0.1,0-0.2-0.1-0.2L279.5,215.8z"/>
</svg>
