<?xml version="1.0" encoding="utf-8"?>
<!-- Generator: Adobe Illustrator 27.8.1, SVG Export Plug-In . SVG Version: 6.00 Build 0)  -->
<svg version="1.1" id="Layer_1"
     xmlns="http://www.w3.org/2000/svg" x="0px" y="0px" viewBox="0 0 600 600"
     style="enable-background:new 0 0 600 600;" xml:space="preserve">
<style type="text/css">
	.windy_rain2{fill:#009AD1;stroke:#009AD1;stroke-width:0.8035;stroke-linecap:round;stroke-linejoin:round;stroke-miterlimit:113.3858;}
</style>
    <path class="windy_rain2" d="M376.6,360.3l1.1-42.3l-26.4,33.1c-4.9,6.1-3.9,15,2.3,19.9c6.1,4.9,15,3.9,19.9-2.3
	C375.4,366.3,376.5,363.4,376.6,360.3z"/>
    <path class="windy_rain2" d="M410.5,432.9l1.1-42.3l-26.4,33.1c-4.9,6.1-3.9,15,2.3,19.9c6.1,4.9,15,3.9,19.9-2.3
	C409.3,439,410.4,436,410.5,432.9z"/>
    <path class="windy_rain2" d="M209.5,239.1l1.1-42.3l-26.4,33.1c-4.9,6.1-3.9,15,2.3,19.9c6.1,4.9,15,3.9,19.9-2.3
	C208.4,245.2,209.4,242.2,209.5,239.1z"/>
    <path class="windy_rain2" d="M289.4,268.2l1.1-42.3L264.2,259c-4.9,6.1-3.9,15,2.3,19.9s15,3.9,19.9-2.3
	C288.3,274.3,289.4,271.3,289.4,268.2z"/>
    <path class="windy_rain2" d="M255.6,195.6l1.1-42.3l-26.4,33.1c-4.9,6.1-3.9,15,2.3,19.9c6.1,4.9,15,3.9,19.9-2.3
	C254.4,201.6,255.5,198.6,255.6,195.6z"/>
    <path class="windy_rain2" d="M449.3,326.4l1.1-42.3L424,317.2c-4.9,6.1-3.9,15,2.3,19.9c6.1,4.9,15,3.9,19.9-2.3
	C448.1,332.4,449.2,329.5,449.3,326.4z"/>
    <path class="windy_rain2" d="M335.5,224.6l1.1-42.3l-26.4,33.1c-4.9,6.1-3.9,15,2.3,19.9c6.1,4.9,15,3.9,19.9-2.3
	C334.3,230.7,335.4,227.7,335.5,224.6z"/>
    <path class="windy_rain2" d="M250.7,374.8l1.1-42.3l-26.4,33.1c-4.9,6.1-3.9,15,2.3,19.9c6.1,4.9,15,3.9,19.9-2.3
	C249.5,380.8,250.6,377.8,250.7,374.8z"/>
    <path class="windy_rain2" d="M296.7,331.2l1.1-42.3L271.4,322c-4.9,6.1-3.9,15,2.3,19.9c6.1,4.9,15,3.9,19.9-2.3
	C295.5,337.2,296.6,334.3,296.7,331.2z"/>
    <path class="windy_rain2" d="M170.7,345.7l1.1-42.3l-26.4,33.1c-4.9,6.1-3.9,15,2.3,19.9s15,3.9,19.9-2.3
	C169.6,351.7,170.7,348.8,170.7,345.7z"/>
    <path class="windy_rain2" d="M415.4,253.7l1.1-42.3l-26.4,33.1c-4.9,6.1-3.9,15,2.3,19.9c6.1,4.9,15,3.9,19.9-2.3
	C414.2,259.8,415.3,256.8,415.4,253.7z"/>
    <path class="windy_rain2" d="M456.5,389.4l1.1-42.3l-26.4,33.1c-4.9,6.1-3.9,15,2.3,19.9c6.1,4.9,15,3.9,19.9-2.3
	C455.3,395.4,456.4,392.4,456.5,389.4z"/>
</svg>
