<?xml version="1.0" encoding="utf-8"?>
<!-- Generator: Adobe Illustrator 27.8.1, SVG Export Plug-In . SVG Version: 6.00 Build 0)  -->
<svg version="1.1" id="Layer_1"
	 xmlns="http://www.w3.org/2000/svg" x="0px" y="0px" viewBox="0 0 600 600"
	 style="enable-background:new 0 0 600 600;" xml:space="preserve">
<style type="text/css">
	.windy_rain1{fill:#009AD1;stroke:#009AD1;stroke-width:0.8035;stroke-linecap:round;stroke-linejoin:round;stroke-miterlimit:113.3858;}
</style>
    <path class="windy_rain1" d="M216.8,231.9l1.1-42.3l-26.4,33.1c-4.9,6.1-3.9,15,2.3,19.9c6.1,4.9,15,3.9,19.9-2.3
	C215.6,237.9,216.7,235,216.8,231.9z"/>
    <path class="windy_rain1" d="M410.5,362.7l1.1-42.3l-26.4,33.1c-4.9,6.1-3.9,15,2.3,19.9c6.1,4.9,15,3.9,19.9-2.3
	C409.3,368.8,410.4,365.8,410.5,362.7z"/>
    <path class="windy_rain1" d="M330.6,333.6l1.1-42.3l-26.4,33.1c-4.9,6.1-3.9,15,2.3,19.9c6.1,4.9,15,3.9,19.9-2.3
	C329.4,339.7,330.5,336.7,330.6,333.6z"/>
    <path class="windy_rain1" d="M170.7,275.5l1.1-42.3l-26.4,33.1c-4.9,6.1-3.9,15,2.3,19.9s15,3.9,19.9-2.3
	C169.6,281.5,170.7,278.5,170.7,275.5z"/>
    <path class="windy_rain1" d="M456.5,319.1l1.1-42.3L431.2,310c-4.9,6.1-3.9,15,2.3,19.9c6.1,4.9,15,3.9,19.9-2.3
	C455.3,325.2,456.4,322.2,456.5,319.1z"/>
    <path class="windy_rain1" d="M257.9,367.5l1.1-42.3l-26.4,33.1c-4.9,6.1-3.9,15,2.3,19.9c6.1,4.9,15,3.9,19.9-2.3
	C256.7,373.6,257.8,370.6,257.9,367.5z"/>
    <path class="windy_rain1" d="M337.8,396.6l1.1-42.3l-26.4,33.1c-4.9,6.1-3.9,15,2.3,19.9c6.1,4.9,15,3.9,19.9-2.3
	C336.7,402.7,337.7,399.7,337.8,396.6z"/>
</svg>
