<?xml version="1.0" encoding="utf-8"?>
<!-- Generator: Adobe Illustrator 27.8.1, SVG Export Plug-In . SVG Version: 6.00 Build 0)  -->
<svg version="1.1" id="Layer_1"
	 xmlns="http://www.w3.org/2000/svg" x="0px" y="0px" viewBox="0 0 600 600"
	 style="enable-background:new 0 0 600 600;" xml:space="preserve">
<style type="text/css">
	.wind3{fill:#F1F2F2;stroke:#FFFFFF;stroke-width:0.8035;stroke-linecap:round;stroke-linejoin:round;stroke-miterlimit:113.3858;}
</style>
    <path class="wind3" d="M199.1,299.5c-18,0-32.5-14.6-32.5-32.5c0-18,14.6-32.5,32.5-32.5s32.6,14.4,32.6,32.4c0,5.4-1.3,10.7-3.9,15.4
	l12.5,6.7c12.2-22.7,3.7-51.1-19.1-63.3c-22.7-12.1-51-3.6-63.2,19.1c-12.2,22.7-3.7,51.1,19,63.3c6.8,3.6,14.4,5.6,22.1,5.6h205.3
	v-14.2H199.1z"/>
    <path class="wind3" d="M313.8,285.2h133.8V271H313.8c-19.3,0-35-15.7-35-35c0-19.3,15.7-35,35-35s35,15.7,35,35l0,0H363
	c0-27.2-22-49.2-49.2-49.2s-49.2,22-49.2,49.2S286.5,285.2,313.8,285.2L313.8,285.2z"/>
    <path class="wind3" d="M305.3,370.5c0,23.6-19.1,42.7-42.7,42.7s-42.7-19.1-42.7-42.7c0-23.6,19.1-42.7,42.7-42.7h170.1V342h-170
	c-15.7,0-28.5,12.8-28.5,28.5c0,15.7,12.8,28.5,28.5,28.5s28.5-12.8,28.5-28.5H305.3z"/>
</svg>
